%TF.GenerationSoftware,KiCad,Pcbnew,7.0.2*%
%TF.CreationDate,2023-05-26T00:25:00+02:00*%
%TF.ProjectId,usb-power-stick,7573622d-706f-4776-9572-2d737469636b,rev?*%
%TF.SameCoordinates,Original*%
%TF.FileFunction,Legend,Bot*%
%TF.FilePolarity,Positive*%
%FSLAX46Y46*%
G04 Gerber Fmt 4.6, Leading zero omitted, Abs format (unit mm)*
G04 Created by KiCad (PCBNEW 7.0.2) date 2023-05-26 00:25:00*
%MOMM*%
%LPD*%
G01*
G04 APERTURE LIST*
G04 APERTURE END LIST*
%TO.C,G\u002A\u002A\u002A*%
G36*
X148204291Y-106803206D02*
G01*
X148288220Y-106848035D01*
X148344875Y-106908323D01*
X148382423Y-106991007D01*
X148390041Y-107079507D01*
X148368542Y-107165934D01*
X148318742Y-107242400D01*
X148241454Y-107301016D01*
X148155042Y-107327924D01*
X148068538Y-107323289D01*
X147989296Y-107291405D01*
X147923352Y-107237253D01*
X147876743Y-107165812D01*
X147855505Y-107082064D01*
X147865676Y-106990988D01*
X147892775Y-106927970D01*
X147952220Y-106856176D01*
X148028889Y-106809781D01*
X148115380Y-106791290D01*
X148204291Y-106803206D01*
G37*
G36*
X142060264Y-109481822D02*
G01*
X142107132Y-109510377D01*
X142167473Y-109576111D01*
X142201987Y-109655996D01*
X142210402Y-109742030D01*
X142192449Y-109826212D01*
X142147856Y-109900538D01*
X142076352Y-109957005D01*
X142064105Y-109963150D01*
X141967146Y-109990814D01*
X141873170Y-109983024D01*
X141788305Y-109941318D01*
X141718679Y-109867233D01*
X141681534Y-109783615D01*
X141676285Y-109698880D01*
X141698707Y-109619121D01*
X141744067Y-109549677D01*
X141807634Y-109495886D01*
X141884677Y-109463088D01*
X141970465Y-109456620D01*
X142060264Y-109481822D01*
G37*
G36*
X149719903Y-107087262D02*
G01*
X149742284Y-107136913D01*
X149757130Y-107201042D01*
X149756976Y-107279400D01*
X149743648Y-107360527D01*
X149703054Y-107446867D01*
X149632675Y-107517830D01*
X149528872Y-107578177D01*
X149469153Y-107602310D01*
X149315789Y-107638114D01*
X149147048Y-107645695D01*
X148969442Y-107625070D01*
X148789481Y-107576257D01*
X148741782Y-107559654D01*
X148698145Y-107544869D01*
X148679641Y-107539173D01*
X148681448Y-107550009D01*
X148692657Y-107587639D01*
X148711002Y-107642909D01*
X148727621Y-107695970D01*
X148761878Y-107857364D01*
X148775739Y-108022172D01*
X148767482Y-108174202D01*
X148738865Y-108312712D01*
X148688068Y-108441623D01*
X148617570Y-108539666D01*
X148526900Y-108607689D01*
X148518227Y-108612082D01*
X148417952Y-108641026D01*
X148310028Y-108637490D01*
X148204310Y-108601661D01*
X148119893Y-108558410D01*
X148026097Y-108602006D01*
X148006059Y-108610926D01*
X147905090Y-108640694D01*
X147811708Y-108638287D01*
X147716106Y-108603759D01*
X147700479Y-108595279D01*
X147616674Y-108526064D01*
X147551272Y-108429310D01*
X147505271Y-108309981D01*
X147479672Y-108173038D01*
X147475475Y-108023444D01*
X147493678Y-107866162D01*
X147535282Y-107706153D01*
X147540903Y-107689321D01*
X147561208Y-107626668D01*
X147574706Y-107581976D01*
X147578717Y-107564010D01*
X147563352Y-107567218D01*
X147521569Y-107580027D01*
X147463145Y-107599623D01*
X147451448Y-107603525D01*
X147332268Y-107631423D01*
X147194516Y-107647094D01*
X147051569Y-107650182D01*
X146916810Y-107640330D01*
X146803617Y-107617182D01*
X146792824Y-107613797D01*
X146669103Y-107559572D01*
X146574559Y-107487674D01*
X146510851Y-107401223D01*
X146479634Y-107303336D01*
X146482565Y-107197131D01*
X146521300Y-107085728D01*
X146556289Y-107016617D01*
X147662659Y-107016617D01*
X147663880Y-107136922D01*
X147695391Y-107248405D01*
X147705313Y-107267888D01*
X147757473Y-107340902D01*
X147826876Y-107410738D01*
X147902306Y-107467209D01*
X147972545Y-107500126D01*
X148107135Y-107520634D01*
X148232943Y-107507884D01*
X148345648Y-107465036D01*
X148440932Y-107395253D01*
X148514478Y-107301698D01*
X148561968Y-107187532D01*
X148579083Y-107055918D01*
X148578938Y-107040150D01*
X148559801Y-106910156D01*
X148508116Y-106798404D01*
X148423243Y-106703452D01*
X148376284Y-106669608D01*
X148290453Y-106625476D01*
X148199615Y-106594280D01*
X148119893Y-106582452D01*
X148066249Y-106588527D01*
X147979542Y-106613543D01*
X147892676Y-106652090D01*
X147822016Y-106697829D01*
X147818123Y-106701096D01*
X147742042Y-106788871D01*
X147689467Y-106897322D01*
X147662659Y-107016617D01*
X146556289Y-107016617D01*
X146564140Y-107001109D01*
X146521542Y-106909026D01*
X146505706Y-106871097D01*
X146480250Y-106757618D01*
X146490783Y-106653199D01*
X146536644Y-106559410D01*
X146617174Y-106477819D01*
X146731710Y-106409997D01*
X146777089Y-106391198D01*
X146822470Y-106378693D01*
X146876855Y-106371450D01*
X146949739Y-106368209D01*
X147050617Y-106367712D01*
X147124776Y-106368517D01*
X147213008Y-106372327D01*
X147283958Y-106380707D01*
X147349755Y-106395286D01*
X147422527Y-106417695D01*
X147443363Y-106424623D01*
X147507475Y-106444715D01*
X147543748Y-106452707D01*
X147558057Y-106449383D01*
X147556276Y-106435525D01*
X147552351Y-106425993D01*
X147501215Y-106269168D01*
X147472313Y-106109783D01*
X147464831Y-105953015D01*
X147477959Y-105804038D01*
X147510884Y-105668029D01*
X147562795Y-105550164D01*
X147632880Y-105455618D01*
X147720328Y-105389566D01*
X147776518Y-105370791D01*
X147864324Y-105363628D01*
X147956742Y-105374250D01*
X148038275Y-105402048D01*
X148114616Y-105440994D01*
X148205149Y-105402048D01*
X148253046Y-105384775D01*
X148350825Y-105366155D01*
X148444039Y-105367577D01*
X148519459Y-105389566D01*
X148579451Y-105431654D01*
X148646179Y-105501188D01*
X148696771Y-105578833D01*
X148719836Y-105633611D01*
X148753045Y-105769920D01*
X148763818Y-105924380D01*
X148752460Y-106089072D01*
X148719274Y-106256079D01*
X148664565Y-106417483D01*
X148660052Y-106432565D01*
X148668086Y-106438828D01*
X148697164Y-106432494D01*
X148754312Y-106413228D01*
X148851931Y-106383607D01*
X149012572Y-106353743D01*
X149170277Y-106345950D01*
X149319887Y-106359229D01*
X149456240Y-106392580D01*
X149574175Y-106445003D01*
X149668531Y-106515498D01*
X149734146Y-106603065D01*
X149750114Y-106645147D01*
X149761066Y-106735082D01*
X149750284Y-106831681D01*
X149718499Y-106920169D01*
X149675671Y-107001157D01*
X149703802Y-107055918D01*
X149719903Y-107087262D01*
G37*
G36*
X143546699Y-109749539D02*
G01*
X143560080Y-109778385D01*
X143588548Y-109887370D01*
X143581677Y-109990809D01*
X143541160Y-110085767D01*
X143468691Y-110169309D01*
X143365965Y-110238497D01*
X143234674Y-110290396D01*
X143177868Y-110302572D01*
X143070083Y-110312668D01*
X142946627Y-110313277D01*
X142819762Y-110304924D01*
X142701751Y-110288135D01*
X142604855Y-110263434D01*
X142550492Y-110245452D01*
X142506248Y-110232617D01*
X142487363Y-110229630D01*
X142486888Y-110231459D01*
X142493033Y-110256408D01*
X142509291Y-110299456D01*
X142512723Y-110308242D01*
X142530287Y-110364106D01*
X142550016Y-110439863D01*
X142568258Y-110521737D01*
X142579784Y-110587961D01*
X142591281Y-110761943D01*
X142574126Y-110922504D01*
X142528748Y-111063753D01*
X142488994Y-111143274D01*
X142449305Y-111200768D01*
X142403202Y-111241261D01*
X142342050Y-111274498D01*
X142244759Y-111304370D01*
X142147617Y-111301601D01*
X142041902Y-111265867D01*
X141948106Y-111222439D01*
X141847794Y-111268320D01*
X141841231Y-111271268D01*
X141727423Y-111304575D01*
X141621636Y-111301636D01*
X141525791Y-111263199D01*
X141441810Y-111190012D01*
X141371615Y-111082825D01*
X141348865Y-111032727D01*
X141304668Y-110877917D01*
X141289760Y-110706802D01*
X141304310Y-110524861D01*
X141348490Y-110337574D01*
X141354883Y-110316877D01*
X141372734Y-110251139D01*
X141376704Y-110216345D01*
X141367231Y-110209514D01*
X141218916Y-110258568D01*
X141041068Y-110296475D01*
X140872751Y-110309705D01*
X140718002Y-110298608D01*
X140580855Y-110263537D01*
X140465345Y-110204846D01*
X140375507Y-110122885D01*
X140337587Y-110061508D01*
X140309954Y-109961983D01*
X140313070Y-109855841D01*
X140347665Y-109752762D01*
X140348748Y-109750656D01*
X141485921Y-109750656D01*
X141508555Y-109866446D01*
X141559233Y-109974346D01*
X141637176Y-110068180D01*
X141741605Y-110141769D01*
X141785116Y-110157392D01*
X141863282Y-110171289D01*
X141952253Y-110177197D01*
X142037258Y-110174298D01*
X142103525Y-110161777D01*
X142120207Y-110155220D01*
X142191422Y-110112654D01*
X142265129Y-110050754D01*
X142329440Y-109980517D01*
X142372469Y-109912942D01*
X142374217Y-109909030D01*
X142404630Y-109796407D01*
X142404771Y-109675587D01*
X142376883Y-109556339D01*
X142323207Y-109448433D01*
X142245984Y-109361640D01*
X142196857Y-109327909D01*
X142112783Y-109286776D01*
X142024411Y-109257448D01*
X141948106Y-109246263D01*
X141896566Y-109251750D01*
X141807390Y-109277393D01*
X141717882Y-109318225D01*
X141644098Y-109367826D01*
X141594060Y-109417724D01*
X141527895Y-109520117D01*
X141492108Y-109633154D01*
X141485921Y-109750656D01*
X140348748Y-109750656D01*
X140391090Y-109668346D01*
X140348882Y-109585440D01*
X140328644Y-109536244D01*
X140309068Y-109440620D01*
X140310576Y-109345987D01*
X140333854Y-109266876D01*
X140340764Y-109254453D01*
X140402895Y-109179287D01*
X140492409Y-109111388D01*
X140600594Y-109057591D01*
X140710012Y-109028095D01*
X140845287Y-109013285D01*
X140991434Y-109014343D01*
X141136741Y-109031162D01*
X141269499Y-109063638D01*
X141291742Y-109070897D01*
X141355314Y-109090412D01*
X141391127Y-109098031D01*
X141405101Y-109094502D01*
X141403160Y-109080577D01*
X141386358Y-109039401D01*
X141350595Y-108936658D01*
X141328002Y-108838236D01*
X141315961Y-108730313D01*
X141311849Y-108599070D01*
X141311826Y-108595680D01*
X141312053Y-108496062D01*
X141315096Y-108424179D01*
X141322194Y-108370553D01*
X141334585Y-108325707D01*
X141353506Y-108280163D01*
X141372768Y-108241467D01*
X141445654Y-108136586D01*
X141532375Y-108066050D01*
X141631661Y-108030395D01*
X141742243Y-108030153D01*
X141862851Y-108065859D01*
X141953383Y-108104805D01*
X142029724Y-108065859D01*
X142093503Y-108041635D01*
X142190693Y-108027130D01*
X142285896Y-108034518D01*
X142364932Y-108063881D01*
X142397271Y-108087140D01*
X142467178Y-108160999D01*
X142527135Y-108255535D01*
X142569112Y-108359136D01*
X142584256Y-108428203D01*
X142596019Y-108557505D01*
X142593792Y-108701304D01*
X142578497Y-108847564D01*
X142551057Y-108984253D01*
X142512393Y-109099336D01*
X142510729Y-109103562D01*
X142512043Y-109114947D01*
X142531058Y-109115587D01*
X142573594Y-109104700D01*
X142645473Y-109081506D01*
X142694910Y-109065753D01*
X142761794Y-109048682D01*
X142829744Y-109038365D01*
X142910894Y-109033170D01*
X143017382Y-109031461D01*
X143080324Y-109031364D01*
X143159447Y-109032719D01*
X143216682Y-109037344D01*
X143261747Y-109046836D01*
X143304359Y-109062793D01*
X143354234Y-109086810D01*
X143373648Y-109096985D01*
X143477774Y-109170140D01*
X143548078Y-109256452D01*
X143583706Y-109353771D01*
X143583802Y-109459949D01*
X143547513Y-109572837D01*
X143503860Y-109664920D01*
X143509260Y-109675587D01*
X143546699Y-109749539D01*
G37*
G36*
X150937090Y-107980015D02*
G01*
X150936288Y-108005237D01*
X150915843Y-108332015D01*
X150876098Y-108662729D01*
X150816230Y-109000283D01*
X150735417Y-109347579D01*
X150632838Y-109707523D01*
X150507671Y-110083018D01*
X150359093Y-110476968D01*
X150186282Y-110892278D01*
X149988418Y-111331851D01*
X149964231Y-111384235D01*
X149906835Y-111511648D01*
X149852665Y-111635947D01*
X149804973Y-111749455D01*
X149767012Y-111844494D01*
X149742035Y-111913387D01*
X149721137Y-111981012D01*
X149675138Y-112154791D01*
X149630276Y-112356884D01*
X149587628Y-112580953D01*
X149548268Y-112820662D01*
X149513274Y-113069675D01*
X149483722Y-113321655D01*
X149460686Y-113570266D01*
X149455349Y-113634108D01*
X149405888Y-114052150D01*
X149333518Y-114442626D01*
X149238405Y-114804982D01*
X149120714Y-115138666D01*
X148980610Y-115443123D01*
X148818259Y-115717802D01*
X148759017Y-115798717D01*
X148662461Y-115912522D01*
X148551416Y-116028811D01*
X148434557Y-116139060D01*
X148320560Y-116234747D01*
X148218102Y-116307349D01*
X148171797Y-116335083D01*
X147946242Y-116445710D01*
X147702344Y-116528798D01*
X147448895Y-116581217D01*
X147279781Y-116593840D01*
X147081803Y-116587293D01*
X146872504Y-116561326D01*
X146661986Y-116516768D01*
X146544023Y-116485260D01*
X146390102Y-116439267D01*
X146253640Y-116391059D01*
X146122789Y-116336327D01*
X145985706Y-116270762D01*
X145941605Y-116248086D01*
X145703255Y-116104692D01*
X145496657Y-115942201D01*
X145322121Y-115760975D01*
X145179957Y-115561379D01*
X145070474Y-115343773D01*
X144993982Y-115108523D01*
X144991109Y-115096666D01*
X144972398Y-115006495D01*
X144960561Y-114916389D01*
X144954375Y-114813864D01*
X144952617Y-114686440D01*
X144952643Y-114674029D01*
X144954901Y-114606287D01*
X145323509Y-114606287D01*
X145329222Y-114835428D01*
X145368839Y-115050382D01*
X145442305Y-115250567D01*
X145549568Y-115435402D01*
X145690573Y-115604304D01*
X145693662Y-115607439D01*
X145858573Y-115750573D01*
X146055658Y-115880046D01*
X146281597Y-115994174D01*
X146533067Y-116091276D01*
X146806747Y-116169667D01*
X146887746Y-116186260D01*
X147027247Y-116205023D01*
X147172701Y-116214931D01*
X147310191Y-116215191D01*
X147425802Y-116205009D01*
X147583403Y-116171941D01*
X147804195Y-116094548D01*
X148009630Y-115983954D01*
X148199159Y-115841011D01*
X148372237Y-115666570D01*
X148528314Y-115461484D01*
X148666844Y-115226605D01*
X148787280Y-114962783D01*
X148889075Y-114670871D01*
X148971680Y-114351721D01*
X149034549Y-114006183D01*
X149077134Y-113635111D01*
X149079462Y-113607726D01*
X149114802Y-113246774D01*
X149156974Y-112905181D01*
X149205302Y-112587431D01*
X149259108Y-112298006D01*
X149317717Y-112041389D01*
X149329999Y-111992158D01*
X149345917Y-111924456D01*
X149355838Y-111876873D01*
X149357992Y-111857493D01*
X149356309Y-111858176D01*
X149344485Y-111881643D01*
X149324335Y-111932303D01*
X149298133Y-112003706D01*
X149268151Y-112089402D01*
X149236661Y-112182940D01*
X149205936Y-112277869D01*
X149178248Y-112367739D01*
X149140439Y-112507677D01*
X149103153Y-112677190D01*
X149074044Y-112845993D01*
X149055038Y-113002712D01*
X149048063Y-113135978D01*
X149045522Y-113206043D01*
X149024782Y-113328313D01*
X148981479Y-113424037D01*
X148913572Y-113496905D01*
X148819021Y-113550612D01*
X148755643Y-113570623D01*
X148645151Y-113577946D01*
X148538876Y-113553736D01*
X148443882Y-113501179D01*
X148367235Y-113423459D01*
X148315996Y-113323763D01*
X148311121Y-113305308D01*
X148302063Y-113232160D01*
X148299145Y-113132418D01*
X148301945Y-113013659D01*
X148310042Y-112883458D01*
X148323012Y-112749393D01*
X148340435Y-112619038D01*
X148361887Y-112499970D01*
X148402735Y-112324111D01*
X148504130Y-111976718D01*
X148636625Y-111611311D01*
X148799731Y-111229081D01*
X148992958Y-110831219D01*
X149215819Y-110418918D01*
X149265703Y-110329675D01*
X149351981Y-110166674D01*
X149421150Y-110020990D01*
X149476822Y-109884106D01*
X149522610Y-109747511D01*
X149562125Y-109602689D01*
X149591259Y-109478643D01*
X149618773Y-109336155D01*
X149636260Y-109201102D01*
X149645532Y-109058592D01*
X149648399Y-108893737D01*
X149642765Y-108709872D01*
X149617577Y-108499877D01*
X149570763Y-108311837D01*
X149500769Y-108139878D01*
X149406039Y-107978123D01*
X149314696Y-107843496D01*
X149420766Y-107822450D01*
X149547639Y-107788173D01*
X149689964Y-107721262D01*
X149805265Y-107630048D01*
X149891936Y-107515578D01*
X149945302Y-107422136D01*
X150012425Y-107513483D01*
X150131824Y-107701301D01*
X150239948Y-107935020D01*
X150323013Y-108195800D01*
X150380825Y-108483016D01*
X150413188Y-108796042D01*
X150427279Y-109030532D01*
X150460110Y-108861699D01*
X150462055Y-108851659D01*
X150527337Y-108443182D01*
X150561569Y-108055543D01*
X150564755Y-107688783D01*
X150536898Y-107342944D01*
X150478002Y-107018069D01*
X150388069Y-106714200D01*
X150267104Y-106431379D01*
X150254144Y-106405989D01*
X150145790Y-106218338D01*
X150011783Y-106020251D01*
X149858170Y-105818917D01*
X149690997Y-105621526D01*
X149516309Y-105435268D01*
X149340151Y-105267332D01*
X149168570Y-105124909D01*
X148980398Y-104991328D01*
X148736450Y-104847792D01*
X148497163Y-104741449D01*
X148262300Y-104672307D01*
X148031625Y-104640377D01*
X147804902Y-104645669D01*
X147581895Y-104688194D01*
X147362368Y-104767962D01*
X147146086Y-104884982D01*
X146932812Y-105039266D01*
X146722311Y-105230823D01*
X146616422Y-105341670D01*
X146435576Y-105553245D01*
X146273261Y-105772511D01*
X146134813Y-105992016D01*
X146025564Y-106204306D01*
X146004792Y-106252817D01*
X145953322Y-106391427D01*
X145904165Y-106547365D01*
X145861592Y-106706440D01*
X145829875Y-106854461D01*
X145825117Y-106883050D01*
X145810661Y-107003073D01*
X145799508Y-107148961D01*
X145791890Y-107311763D01*
X145788040Y-107482532D01*
X145788188Y-107652319D01*
X145792568Y-107812174D01*
X145801410Y-107953150D01*
X145811933Y-108061224D01*
X145826117Y-108186442D01*
X145842990Y-108321517D01*
X145861759Y-108461215D01*
X145881631Y-108600301D01*
X145901812Y-108733540D01*
X145921509Y-108855699D01*
X145939929Y-108961542D01*
X145956279Y-109045835D01*
X145969764Y-109103343D01*
X145979592Y-109128832D01*
X145983936Y-109120232D01*
X145991335Y-109083435D01*
X145999332Y-109026700D01*
X146012461Y-108937895D01*
X146034690Y-108816130D01*
X146062485Y-108681285D01*
X146093232Y-108545400D01*
X146124315Y-108420513D01*
X146153119Y-108318664D01*
X146173575Y-108257068D01*
X146207676Y-108164621D01*
X146247420Y-108064864D01*
X146290093Y-107963848D01*
X146332979Y-107867625D01*
X146373361Y-107782249D01*
X146408526Y-107713773D01*
X146435756Y-107668248D01*
X146452337Y-107651728D01*
X146460597Y-107655672D01*
X146492350Y-107676136D01*
X146537994Y-107708208D01*
X146598871Y-107745545D01*
X146722999Y-107796557D01*
X146870779Y-107833002D01*
X147034625Y-107852673D01*
X147206225Y-107863363D01*
X147145056Y-107959207D01*
X147069859Y-108087924D01*
X146959475Y-108326030D01*
X146866956Y-108593842D01*
X146793103Y-108888900D01*
X146738716Y-109208745D01*
X146735400Y-109235860D01*
X146725506Y-109355915D01*
X146719039Y-109502792D01*
X146715932Y-109668225D01*
X146716122Y-109843946D01*
X146719546Y-110021689D01*
X146726139Y-110193185D01*
X146735838Y-110350169D01*
X146748578Y-110484372D01*
X146777158Y-110703913D01*
X146822394Y-110994337D01*
X146874055Y-111273103D01*
X146929898Y-111527307D01*
X146958134Y-111665424D01*
X146984242Y-111853917D01*
X146999613Y-112049708D01*
X147003771Y-112242142D01*
X146996242Y-112420562D01*
X146976550Y-112574313D01*
X146966961Y-112620542D01*
X146931416Y-112749064D01*
X146886183Y-112868572D01*
X146835193Y-112969583D01*
X146782378Y-113042617D01*
X146763811Y-113061236D01*
X146667992Y-113127774D01*
X146560825Y-113159995D01*
X146447148Y-113157084D01*
X146331798Y-113118231D01*
X146290764Y-113094767D01*
X146207515Y-113020163D01*
X146154113Y-112926942D01*
X146131762Y-112819524D01*
X146141666Y-112702326D01*
X146185029Y-112579766D01*
X146188937Y-112571710D01*
X146211036Y-112521502D01*
X146226070Y-112473323D01*
X146235851Y-112417289D01*
X146242190Y-112343510D01*
X146246899Y-112242100D01*
X146249255Y-112160857D01*
X146249045Y-112085500D01*
X146245183Y-112045314D01*
X146237717Y-112041389D01*
X146227149Y-112063558D01*
X146205044Y-112115968D01*
X146174408Y-112191701D01*
X146137738Y-112284582D01*
X146097527Y-112388435D01*
X146050821Y-112508813D01*
X145991364Y-112659695D01*
X145923922Y-112829065D01*
X145851581Y-113009287D01*
X145777428Y-113192727D01*
X145704550Y-113371749D01*
X145636034Y-113538719D01*
X145574967Y-113686001D01*
X145524435Y-113805959D01*
X145510329Y-113839555D01*
X145414009Y-114107769D01*
X145351753Y-114363540D01*
X145323509Y-114606287D01*
X144954901Y-114606287D01*
X144958654Y-114493714D01*
X144976558Y-114324614D01*
X145008296Y-114158350D01*
X145055808Y-113986544D01*
X145121035Y-113800815D01*
X145205918Y-113592786D01*
X145236781Y-113520340D01*
X145295970Y-113378932D01*
X145361732Y-113219294D01*
X145431970Y-113046714D01*
X145504587Y-112866479D01*
X145577485Y-112683877D01*
X145648566Y-112504195D01*
X145715734Y-112332720D01*
X145776891Y-112174740D01*
X145829939Y-112035542D01*
X145872782Y-111920415D01*
X145903321Y-111834644D01*
X145935565Y-111739622D01*
X145974468Y-111619973D01*
X146004810Y-111514857D01*
X146026504Y-111419190D01*
X146039460Y-111327888D01*
X146043590Y-111235867D01*
X146038805Y-111138041D01*
X146025017Y-111029328D01*
X146002137Y-110904641D01*
X145970077Y-110758898D01*
X145928749Y-110587013D01*
X145878063Y-110383903D01*
X145800771Y-110070842D01*
X145712778Y-109696800D01*
X145637157Y-109351967D01*
X145573378Y-109033042D01*
X145520907Y-108736725D01*
X145479212Y-108459715D01*
X145447762Y-108198712D01*
X145426023Y-107950415D01*
X145413463Y-107711524D01*
X145409551Y-107478739D01*
X145409703Y-107440332D01*
X145421520Y-107114888D01*
X145453499Y-106816169D01*
X145507579Y-106538612D01*
X145585696Y-106276651D01*
X145689789Y-106024721D01*
X145821793Y-105777259D01*
X145983646Y-105528701D01*
X146177286Y-105273481D01*
X146365464Y-105056059D01*
X146594778Y-104831601D01*
X146830326Y-104643994D01*
X147072259Y-104493132D01*
X147320725Y-104378912D01*
X147575876Y-104301230D01*
X147639868Y-104289176D01*
X147765901Y-104274943D01*
X147906656Y-104267816D01*
X148049281Y-104267981D01*
X148180921Y-104275624D01*
X148288726Y-104290931D01*
X148343588Y-104303169D01*
X148619218Y-104386932D01*
X148892580Y-104506697D01*
X149162031Y-104661202D01*
X149425929Y-104849183D01*
X149682634Y-105069376D01*
X149930504Y-105320519D01*
X150167897Y-105601347D01*
X150393171Y-105910598D01*
X150541098Y-106149074D01*
X150675474Y-106417048D01*
X150781133Y-106694695D01*
X150859098Y-106985915D01*
X150910397Y-107294609D01*
X150936052Y-107624676D01*
X150936239Y-107688783D01*
X150937090Y-107980015D01*
G37*
G36*
X145116169Y-117350251D02*
G01*
X145116160Y-117359000D01*
X145114030Y-117485511D01*
X145107346Y-117587552D01*
X145094924Y-117677287D01*
X145075578Y-117766880D01*
X145041248Y-117887069D01*
X144947543Y-118116286D01*
X144821476Y-118326593D01*
X144663104Y-118517941D01*
X144472485Y-118690284D01*
X144249674Y-118843574D01*
X143994728Y-118977763D01*
X143707703Y-119092803D01*
X143388657Y-119188646D01*
X143381055Y-119190585D01*
X143289050Y-119211982D01*
X143194470Y-119230958D01*
X143116648Y-119243607D01*
X143079215Y-119248087D01*
X142816015Y-119258644D01*
X142554213Y-119233547D01*
X142298605Y-119173868D01*
X142053989Y-119080680D01*
X141825163Y-118955054D01*
X141772068Y-118918183D01*
X141661877Y-118829249D01*
X141545600Y-118722179D01*
X141432210Y-118605918D01*
X141330680Y-118489415D01*
X141249984Y-118381613D01*
X141219972Y-118335825D01*
X141062264Y-118057833D01*
X140926532Y-117750042D01*
X140812973Y-117413111D01*
X140721786Y-117047700D01*
X140653167Y-116654469D01*
X140607313Y-116234077D01*
X140603245Y-116184450D01*
X140577270Y-115919393D01*
X140544596Y-115654811D01*
X140506287Y-115396880D01*
X140463406Y-115151773D01*
X140417019Y-114925662D01*
X140368188Y-114724722D01*
X140317977Y-114555126D01*
X140309761Y-114531194D01*
X140272953Y-114433336D01*
X140225942Y-114318124D01*
X140173912Y-114197986D01*
X140122047Y-114085353D01*
X140069202Y-113973784D01*
X139854969Y-113497521D01*
X139669475Y-113042352D01*
X139512192Y-112606457D01*
X139382596Y-112188016D01*
X139280160Y-111785208D01*
X139204360Y-111396212D01*
X139154668Y-111019209D01*
X139130560Y-110652378D01*
X139129599Y-110379039D01*
X139502348Y-110379039D01*
X139504569Y-110644893D01*
X139521961Y-110923262D01*
X139553961Y-111204412D01*
X139600007Y-111478612D01*
X139642658Y-111694343D01*
X139656334Y-111463700D01*
X139685558Y-111167468D01*
X139740659Y-110879655D01*
X139820737Y-110618928D01*
X139925992Y-110384642D01*
X140056625Y-110176153D01*
X140124355Y-110083664D01*
X140167482Y-110168524D01*
X140174779Y-110182258D01*
X140252628Y-110285702D01*
X140360589Y-110373201D01*
X140493957Y-110441628D01*
X140648024Y-110487856D01*
X140754885Y-110510223D01*
X140690617Y-110597773D01*
X140664706Y-110634095D01*
X140578698Y-110775637D01*
X140513813Y-110924017D01*
X140467901Y-111086366D01*
X140438815Y-111269816D01*
X140424406Y-111481499D01*
X140421437Y-111643428D01*
X140426084Y-111802614D01*
X140440510Y-111950573D01*
X140466093Y-112100855D01*
X140504209Y-112267011D01*
X140528945Y-112361989D01*
X140555590Y-112453821D01*
X140584692Y-112540494D01*
X140618642Y-112627351D01*
X140659832Y-112719733D01*
X140710653Y-112822983D01*
X140773495Y-112942442D01*
X140850751Y-113083454D01*
X140944811Y-113251359D01*
X140968903Y-113294413D01*
X141135339Y-113610742D01*
X141287857Y-113934023D01*
X141423835Y-114257662D01*
X141540647Y-114575066D01*
X141635671Y-114879644D01*
X141706282Y-115164801D01*
X141714530Y-115206335D01*
X141734496Y-115330027D01*
X141750294Y-115462338D01*
X141761502Y-115595681D01*
X141767699Y-115722465D01*
X141768462Y-115835102D01*
X141763371Y-115926001D01*
X141752003Y-115987574D01*
X141717846Y-116061716D01*
X141647731Y-116145666D01*
X141557433Y-116205248D01*
X141453933Y-116237483D01*
X141344213Y-116239394D01*
X141235255Y-116208001D01*
X141192999Y-116185947D01*
X141113858Y-116122615D01*
X141060008Y-116039221D01*
X141029284Y-115931628D01*
X141019524Y-115795702D01*
X141013442Y-115672099D01*
X140995538Y-115520438D01*
X140967696Y-115355707D01*
X140931803Y-115189035D01*
X140889752Y-115031550D01*
X140881133Y-115002988D01*
X140852196Y-114910745D01*
X140820969Y-114815562D01*
X140789724Y-114723888D01*
X140760733Y-114642175D01*
X140736268Y-114576873D01*
X140718602Y-114534433D01*
X140710007Y-114521304D01*
X140710360Y-114529763D01*
X140717603Y-114567814D01*
X140731501Y-114628987D01*
X140750283Y-114705200D01*
X140767161Y-114773660D01*
X140821906Y-115027694D01*
X140872426Y-115312409D01*
X140917939Y-115622632D01*
X140957665Y-115953194D01*
X140990824Y-116298922D01*
X141024896Y-116606705D01*
X141081934Y-116942726D01*
X141157258Y-117258366D01*
X141249729Y-117548937D01*
X141358206Y-117809749D01*
X141416457Y-117924491D01*
X141554206Y-118147763D01*
X141710859Y-118345298D01*
X141883972Y-118514859D01*
X142071099Y-118654209D01*
X142269794Y-118761113D01*
X142477611Y-118833334D01*
X142505998Y-118840193D01*
X142663323Y-118866776D01*
X142832359Y-118879353D01*
X142997863Y-118877314D01*
X143144597Y-118860049D01*
X143235808Y-118839898D01*
X143370096Y-118803499D01*
X143514324Y-118758596D01*
X143656796Y-118709085D01*
X143785815Y-118658863D01*
X143889687Y-118611827D01*
X144013608Y-118544931D01*
X144215214Y-118412210D01*
X144382769Y-118266134D01*
X144517450Y-118105180D01*
X144620435Y-117927828D01*
X144692902Y-117732553D01*
X144736028Y-117517835D01*
X144741861Y-117464247D01*
X144746349Y-117279074D01*
X144726740Y-117084412D01*
X144682229Y-116876204D01*
X144612013Y-116650389D01*
X144515289Y-116402910D01*
X144484943Y-116330266D01*
X144442718Y-116227400D01*
X144391326Y-116100984D01*
X144333080Y-115956744D01*
X144270290Y-115800404D01*
X144205270Y-115637690D01*
X144140331Y-115474328D01*
X144127236Y-115441309D01*
X144066839Y-115289411D01*
X144010170Y-115147518D01*
X143958903Y-115019779D01*
X143914714Y-114910342D01*
X143879275Y-114823357D01*
X143854261Y-114762973D01*
X143841346Y-114733339D01*
X143833761Y-114718670D01*
X143824935Y-114707798D01*
X143819830Y-114716536D01*
X143817936Y-114749351D01*
X143818744Y-114810710D01*
X143821744Y-114905083D01*
X143821875Y-114908818D01*
X143826441Y-115010257D01*
X143833010Y-115084905D01*
X143843424Y-115143165D01*
X143859523Y-115195439D01*
X143883147Y-115252128D01*
X143897980Y-115287748D01*
X143930830Y-115413448D01*
X143930251Y-115528709D01*
X143897068Y-115630550D01*
X143832109Y-115715989D01*
X143736201Y-115782042D01*
X143678605Y-115806456D01*
X143564604Y-115828763D01*
X143456977Y-115815025D01*
X143358005Y-115766149D01*
X143269973Y-115683046D01*
X143195163Y-115566624D01*
X143189081Y-115554565D01*
X143151751Y-115474635D01*
X143123306Y-115398660D01*
X143102605Y-115319739D01*
X143088507Y-115230966D01*
X143079869Y-115125440D01*
X143075550Y-114996257D01*
X143074407Y-114836514D01*
X143074462Y-114776681D01*
X143075114Y-114658106D01*
X143077138Y-114565330D01*
X143081325Y-114490113D01*
X143088466Y-114424218D01*
X143099353Y-114359405D01*
X143114776Y-114287435D01*
X143135527Y-114200069D01*
X143166543Y-114065610D01*
X143225189Y-113773468D01*
X143276902Y-113463346D01*
X143319421Y-113148183D01*
X143323200Y-113114269D01*
X143335157Y-112972686D01*
X143344032Y-112810709D01*
X143349763Y-112636588D01*
X143352287Y-112458573D01*
X143351542Y-112284912D01*
X143347466Y-112123856D01*
X143339996Y-111983654D01*
X143329069Y-111872556D01*
X143294977Y-111657046D01*
X143228992Y-111357642D01*
X143145376Y-111085273D01*
X143044907Y-110842345D01*
X142928361Y-110631266D01*
X142861750Y-110527136D01*
X143042742Y-110516864D01*
X143136924Y-110508128D01*
X143295074Y-110476896D01*
X143433274Y-110427644D01*
X143543973Y-110362693D01*
X143564028Y-110348549D01*
X143604250Y-110327906D01*
X143627483Y-110327444D01*
X143633244Y-110334605D01*
X143657326Y-110374927D01*
X143690726Y-110439578D01*
X143729851Y-110520951D01*
X143771107Y-110611433D01*
X143810898Y-110703416D01*
X143845631Y-110789290D01*
X143860286Y-110828391D01*
X143916797Y-111000063D01*
X143969856Y-111192701D01*
X144016063Y-111393140D01*
X144052016Y-111588219D01*
X144064212Y-111662921D01*
X144076177Y-111730787D01*
X144085197Y-111775913D01*
X144089930Y-111791120D01*
X144094892Y-111775978D01*
X144105333Y-111729025D01*
X144119553Y-111656769D01*
X144136395Y-111565640D01*
X144154704Y-111462064D01*
X144173322Y-111352471D01*
X144191094Y-111243289D01*
X144206863Y-111140946D01*
X144225812Y-111005418D01*
X144264736Y-110635308D01*
X144282286Y-110284858D01*
X144278539Y-109956355D01*
X144253571Y-109652085D01*
X144207456Y-109374336D01*
X144140270Y-109125393D01*
X144093813Y-108997067D01*
X143961923Y-108711037D01*
X143793226Y-108431921D01*
X143587792Y-108159825D01*
X143345689Y-107894855D01*
X143325205Y-107874480D01*
X143115667Y-107687244D01*
X142904422Y-107537287D01*
X142690699Y-107424397D01*
X142473727Y-107348366D01*
X142252734Y-107308984D01*
X142026948Y-107306040D01*
X141795598Y-107339326D01*
X141557913Y-107408630D01*
X141348967Y-107499652D01*
X141126685Y-107627979D01*
X140902772Y-107787895D01*
X140680304Y-107976781D01*
X140462359Y-108192013D01*
X140252015Y-108430971D01*
X140052349Y-108691034D01*
X140017159Y-108740979D01*
X139858919Y-108992776D01*
X139732802Y-109246858D01*
X139636093Y-109510382D01*
X139566077Y-109790503D01*
X139520040Y-110094379D01*
X139515859Y-110135431D01*
X139502348Y-110379039D01*
X139129599Y-110379039D01*
X139129484Y-110346381D01*
X139151759Y-110008249D01*
X139200427Y-109691784D01*
X139276428Y-109393402D01*
X139380706Y-109109521D01*
X139514201Y-108836558D01*
X139677856Y-108570931D01*
X139887222Y-108283004D01*
X140135046Y-107988176D01*
X140394189Y-107726021D01*
X140663499Y-107497597D01*
X140941821Y-107303967D01*
X141228001Y-107146190D01*
X141452677Y-107051111D01*
X141714485Y-106973833D01*
X141973310Y-106933810D01*
X142228809Y-106930940D01*
X142480637Y-106965119D01*
X142728452Y-107036246D01*
X142971909Y-107144217D01*
X143210665Y-107288931D01*
X143444376Y-107470284D01*
X143672698Y-107688173D01*
X143895287Y-107942497D01*
X143946985Y-108007590D01*
X144129412Y-108256625D01*
X144281342Y-108500423D01*
X144404671Y-108744492D01*
X144501294Y-108994343D01*
X144573104Y-109255483D01*
X144621998Y-109533422D01*
X144649869Y-109833671D01*
X144658614Y-110161737D01*
X144658612Y-110164767D01*
X144654531Y-110391304D01*
X144642371Y-110622706D01*
X144621583Y-110862343D01*
X144591621Y-111113583D01*
X144551935Y-111379796D01*
X144501979Y-111664353D01*
X144441204Y-111970622D01*
X144369063Y-112301973D01*
X144285007Y-112661775D01*
X144188490Y-113053399D01*
X144148036Y-113215048D01*
X144109339Y-113372908D01*
X144078878Y-113501947D01*
X144055823Y-113606142D01*
X144039340Y-113689475D01*
X144028597Y-113755924D01*
X144022761Y-113809468D01*
X144021001Y-113854088D01*
X144029006Y-113963417D01*
X144053791Y-114105191D01*
X144094042Y-114269273D01*
X144148423Y-114450247D01*
X144215597Y-114642701D01*
X144248496Y-114729680D01*
X144297867Y-114857498D01*
X144356800Y-115008051D01*
X144422728Y-115174929D01*
X144493080Y-115351722D01*
X144565289Y-115532019D01*
X144636787Y-115709410D01*
X144705005Y-115877484D01*
X144767374Y-116029831D01*
X144821325Y-116160040D01*
X144864291Y-116261700D01*
X144892245Y-116327638D01*
X144968746Y-116521080D01*
X145027005Y-116694213D01*
X145068949Y-116855366D01*
X145096506Y-117012870D01*
X145111603Y-117175055D01*
X145114314Y-117279074D01*
X145116169Y-117350251D01*
G37*
%TD*%
M02*
