%TF.GenerationSoftware,KiCad,Pcbnew,7.0.2*%
%TF.CreationDate,2023-05-26T00:25:00+02:00*%
%TF.ProjectId,usb-power-stick,7573622d-706f-4776-9572-2d737469636b,rev?*%
%TF.SameCoordinates,Original*%
%TF.FileFunction,Copper,L2,Bot*%
%TF.FilePolarity,Positive*%
%FSLAX46Y46*%
G04 Gerber Fmt 4.6, Leading zero omitted, Abs format (unit mm)*
G04 Created by KiCad (PCBNEW 7.0.2) date 2023-05-26 00:25:00*
%MOMM*%
%LPD*%
G01*
G04 APERTURE LIST*
%TA.AperFunction,ComponentPad*%
%ADD10R,1.500000X1.600000*%
%TD*%
%TA.AperFunction,ComponentPad*%
%ADD11C,1.600000*%
%TD*%
%TA.AperFunction,ComponentPad*%
%ADD12C,3.000000*%
%TD*%
%TA.AperFunction,ComponentPad*%
%ADD13C,1.524000*%
%TD*%
%TA.AperFunction,ComponentPad*%
%ADD14O,3.800000X1.600000*%
%TD*%
%TA.AperFunction,ViaPad*%
%ADD15C,0.800000*%
%TD*%
%TA.AperFunction,Conductor*%
%ADD16C,0.250000*%
%TD*%
G04 APERTURE END LIST*
D10*
%TO.P,J2,1,VBUS*%
%TO.N,Net-(C1-Pad1)*%
X153146000Y-115316000D03*
D11*
%TO.P,J2,2,D-*%
%TO.N,unconnected-(J2-Pad2)*%
X153146000Y-112816000D03*
%TO.P,J2,3,D+*%
%TO.N,unconnected-(J2-Pad3)*%
X153146000Y-110816000D03*
%TO.P,J2,4,GND*%
%TO.N,Net-(J2-Pad4)*%
X153146000Y-108316000D03*
D12*
%TO.P,J2,5,Shield*%
%TO.N,unconnected-(J2-Pad5)*%
X155856000Y-118386000D03*
X155856000Y-105246000D03*
%TD*%
D13*
%TO.P,J1,1,VBUS*%
%TO.N,Net-(C1-Pad1)*%
X128475000Y-115316000D03*
%TO.P,J1,2,D-*%
%TO.N,Net-(J1-Pad2)*%
X128475000Y-112816000D03*
%TO.P,J1,3,D+*%
%TO.N,Net-(J1-Pad3)*%
X128475000Y-110816000D03*
%TO.P,J1,4,GND*%
%TO.N,GND*%
X128475000Y-108316000D03*
D14*
%TO.P,J1,5,Shield*%
%TO.N,unconnected-(J1-Pad5)*%
X126375000Y-106116000D03*
X126375000Y-117516000D03*
%TD*%
D15*
%TO.N,GND*%
X144500000Y-116530000D03*
X131445000Y-108966000D03*
X132969000Y-104902000D03*
X144500000Y-115260000D03*
X143357000Y-117800000D03*
X138049000Y-104902000D03*
X147066000Y-104775000D03*
X143357000Y-116530000D03*
X150114000Y-116586000D03*
X148971000Y-117856000D03*
X144500000Y-117800000D03*
%TO.N,Net-(U1-Pad2)*%
X131445000Y-110236000D03*
X140055000Y-112720000D03*
%TO.N,Net-(R2-Pad1)*%
X143230000Y-107950000D03*
X143357000Y-115260000D03*
%TD*%
D16*
%TO.N,Net-(U1-Pad2)*%
X140055000Y-112720000D02*
X133040000Y-112720000D01*
X133040000Y-112720000D02*
X131445000Y-111125000D01*
X131445000Y-111125000D02*
X131445000Y-110236000D01*
%TO.N,Net-(R2-Pad1)*%
X142748000Y-114651000D02*
X142748000Y-108432000D01*
X142748000Y-108432000D02*
X143230000Y-107950000D01*
X143357000Y-115260000D02*
X142748000Y-114651000D01*
%TD*%
%TA.AperFunction,Conductor*%
%TO.N,GND*%
G36*
X165997563Y-103146502D02*
G01*
X166009373Y-103155099D01*
X166077515Y-103211021D01*
X166094978Y-103228484D01*
X166150899Y-103296624D01*
X166178653Y-103361970D01*
X166179500Y-103376557D01*
X166179500Y-120255441D01*
X166159498Y-120323562D01*
X166150899Y-120335375D01*
X166094978Y-120403515D01*
X166077513Y-120420980D01*
X166009376Y-120476899D01*
X165944029Y-120504653D01*
X165929442Y-120505500D01*
X124158558Y-120505500D01*
X124090437Y-120485498D01*
X124078625Y-120476900D01*
X124078624Y-120476899D01*
X124010484Y-120420978D01*
X123993020Y-120403514D01*
X123937100Y-120335374D01*
X123909347Y-120270026D01*
X123908500Y-120255441D01*
X123908500Y-117516000D01*
X124215397Y-117516000D01*
X124235757Y-117722713D01*
X124235757Y-117722715D01*
X124235758Y-117722718D01*
X124296055Y-117921492D01*
X124296056Y-117921494D01*
X124393972Y-118104682D01*
X124525747Y-118265252D01*
X124686316Y-118397027D01*
X124686317Y-118397027D01*
X124869508Y-118494945D01*
X125068282Y-118555242D01*
X125223199Y-118570500D01*
X125226291Y-118570500D01*
X127523709Y-118570500D01*
X127526801Y-118570500D01*
X127681718Y-118555242D01*
X127880492Y-118494945D01*
X128063683Y-118397027D01*
X128077119Y-118386000D01*
X154096580Y-118386000D01*
X154116231Y-118648229D01*
X154174746Y-118904599D01*
X154270817Y-119149384D01*
X154402296Y-119377113D01*
X154402298Y-119377116D01*
X154402299Y-119377117D01*
X154566254Y-119582710D01*
X154740200Y-119744108D01*
X154759023Y-119761573D01*
X154921972Y-119872669D01*
X154976290Y-119909702D01*
X155099114Y-119968851D01*
X155213211Y-120023798D01*
X155269252Y-120041084D01*
X155464492Y-120101308D01*
X155724518Y-120140500D01*
X155724520Y-120140500D01*
X155987480Y-120140500D01*
X155987482Y-120140500D01*
X156247508Y-120101308D01*
X156498788Y-120023798D01*
X156735710Y-119909702D01*
X156952980Y-119761570D01*
X157145746Y-119582710D01*
X157309701Y-119377117D01*
X157441183Y-119149384D01*
X157537254Y-118904598D01*
X157595769Y-118648228D01*
X157615420Y-118386000D01*
X157595769Y-118123772D01*
X157537254Y-117867402D01*
X157441183Y-117622616D01*
X157309701Y-117394883D01*
X157145746Y-117189290D01*
X156952980Y-117010430D01*
X156952981Y-117010430D01*
X156952976Y-117010426D01*
X156735710Y-116862298D01*
X156498788Y-116748201D01*
X156317107Y-116692160D01*
X156247508Y-116670692D01*
X155987482Y-116631500D01*
X155724518Y-116631500D01*
X155464492Y-116670692D01*
X155464488Y-116670693D01*
X155464489Y-116670693D01*
X155213211Y-116748201D01*
X154976289Y-116862298D01*
X154759023Y-117010426D01*
X154653227Y-117108590D01*
X154566254Y-117189290D01*
X154473195Y-117305981D01*
X154402296Y-117394886D01*
X154270817Y-117622615D01*
X154174746Y-117867400D01*
X154116231Y-118123770D01*
X154096580Y-118386000D01*
X128077119Y-118386000D01*
X128224252Y-118265252D01*
X128356027Y-118104683D01*
X128453945Y-117921492D01*
X128514242Y-117722718D01*
X128534602Y-117516000D01*
X128514242Y-117309282D01*
X128453945Y-117110508D01*
X128356027Y-116927317D01*
X128302668Y-116862298D01*
X128224252Y-116766747D01*
X128063682Y-116634972D01*
X127880494Y-116537056D01*
X127880493Y-116537055D01*
X127880492Y-116537055D01*
X127681718Y-116476758D01*
X127681715Y-116476757D01*
X127681713Y-116476757D01*
X127529881Y-116461803D01*
X127529873Y-116461802D01*
X127526801Y-116461500D01*
X125223199Y-116461500D01*
X125220127Y-116461802D01*
X125220118Y-116461803D01*
X125068286Y-116476757D01*
X125068283Y-116476757D01*
X125068282Y-116476758D01*
X124869508Y-116537055D01*
X124869505Y-116537056D01*
X124686317Y-116634972D01*
X124525747Y-116766747D01*
X124393972Y-116927317D01*
X124296056Y-117110505D01*
X124235757Y-117309286D01*
X124215397Y-117516000D01*
X123908500Y-117516000D01*
X123908500Y-115315999D01*
X127453581Y-115315999D01*
X127473207Y-115515269D01*
X127531332Y-115706878D01*
X127531333Y-115706880D01*
X127625722Y-115883469D01*
X127675355Y-115943948D01*
X127752747Y-116038252D01*
X127830139Y-116101764D01*
X127907531Y-116165278D01*
X128084120Y-116259667D01*
X128179925Y-116288729D01*
X128275730Y-116317792D01*
X128474999Y-116337418D01*
X128474999Y-116337417D01*
X128475000Y-116337418D01*
X128674269Y-116317792D01*
X128865880Y-116259667D01*
X129042469Y-116165278D01*
X129071969Y-116141068D01*
X152141500Y-116141068D01*
X152156265Y-116215300D01*
X152212515Y-116299484D01*
X152268765Y-116337068D01*
X152296699Y-116355734D01*
X152370933Y-116370500D01*
X153921066Y-116370499D01*
X153921068Y-116370499D01*
X153970556Y-116360655D01*
X153995301Y-116355734D01*
X154079484Y-116299484D01*
X154135734Y-116215301D01*
X154150500Y-116141067D01*
X154150499Y-114490934D01*
X154150499Y-114490933D01*
X154150499Y-114490931D01*
X154135734Y-114416699D01*
X154079484Y-114332515D01*
X153995301Y-114276266D01*
X153995296Y-114276265D01*
X153921067Y-114261500D01*
X153921066Y-114261500D01*
X152370931Y-114261500D01*
X152296699Y-114276265D01*
X152212515Y-114332515D01*
X152156266Y-114416698D01*
X152141500Y-114490933D01*
X152141500Y-116141068D01*
X129071969Y-116141068D01*
X129197252Y-116038252D01*
X129324278Y-115883469D01*
X129418667Y-115706880D01*
X129476792Y-115515269D01*
X129496418Y-115316000D01*
X129490903Y-115259999D01*
X129476792Y-115116730D01*
X129418667Y-114925121D01*
X129418667Y-114925120D01*
X129324278Y-114748531D01*
X129257198Y-114666793D01*
X129231188Y-114635099D01*
X142363581Y-114635099D01*
X142367532Y-114666793D01*
X142368500Y-114682380D01*
X142368500Y-114682448D01*
X142371955Y-114703159D01*
X142372705Y-114708304D01*
X142380241Y-114768751D01*
X142380276Y-114768861D01*
X142409255Y-114822410D01*
X142411638Y-114827039D01*
X142438406Y-114881793D01*
X142438460Y-114881866D01*
X142483270Y-114923117D01*
X142487028Y-114926722D01*
X142667588Y-115107283D01*
X142701613Y-115169595D01*
X142703574Y-115211563D01*
X142697693Y-115260002D01*
X142716850Y-115417780D01*
X142773212Y-115566394D01*
X142773213Y-115566395D01*
X142863502Y-115697201D01*
X142982471Y-115802599D01*
X143123207Y-115876463D01*
X143277529Y-115914500D01*
X143277531Y-115914500D01*
X143436469Y-115914500D01*
X143436471Y-115914500D01*
X143590793Y-115876463D01*
X143731529Y-115802599D01*
X143850498Y-115697201D01*
X143940787Y-115566395D01*
X143997149Y-115417782D01*
X144016307Y-115260000D01*
X143997149Y-115102218D01*
X143940787Y-114953605D01*
X143850498Y-114822799D01*
X143731529Y-114717401D01*
X143590793Y-114643537D01*
X143436471Y-114605500D01*
X143291384Y-114605500D01*
X143223263Y-114585498D01*
X143202289Y-114568595D01*
X143164405Y-114530711D01*
X143130379Y-114468399D01*
X143127500Y-114441616D01*
X143127500Y-112815999D01*
X152086397Y-112815999D01*
X152106757Y-113022713D01*
X152106757Y-113022715D01*
X152106758Y-113022718D01*
X152147553Y-113157201D01*
X152167056Y-113221494D01*
X152264972Y-113404682D01*
X152396747Y-113565252D01*
X152557316Y-113697027D01*
X152557317Y-113697027D01*
X152740508Y-113794945D01*
X152939282Y-113855242D01*
X153146000Y-113875602D01*
X153352718Y-113855242D01*
X153551492Y-113794945D01*
X153734683Y-113697027D01*
X153895252Y-113565252D01*
X154027027Y-113404683D01*
X154124945Y-113221492D01*
X154185242Y-113022718D01*
X154205602Y-112816000D01*
X154185242Y-112609282D01*
X154124945Y-112410508D01*
X154027027Y-112227317D01*
X153986062Y-112177401D01*
X153895252Y-112066747D01*
X153734682Y-111934972D01*
X153719995Y-111927122D01*
X153669347Y-111877370D01*
X153653637Y-111808134D01*
X153677853Y-111741395D01*
X153719995Y-111704878D01*
X153721711Y-111703960D01*
X153734683Y-111697027D01*
X153895252Y-111565252D01*
X154027027Y-111404683D01*
X154124945Y-111221492D01*
X154185242Y-111022718D01*
X154205602Y-110816000D01*
X154185242Y-110609282D01*
X154124945Y-110410508D01*
X154027027Y-110227317D01*
X154001174Y-110195815D01*
X153895252Y-110066747D01*
X153734682Y-109934972D01*
X153551494Y-109837056D01*
X153551493Y-109837055D01*
X153551492Y-109837055D01*
X153352718Y-109776758D01*
X153352715Y-109776757D01*
X153352713Y-109776757D01*
X153146000Y-109756397D01*
X152939286Y-109776757D01*
X152939283Y-109776757D01*
X152939282Y-109776758D01*
X152815825Y-109814208D01*
X152740505Y-109837056D01*
X152557317Y-109934972D01*
X152396747Y-110066747D01*
X152264972Y-110227317D01*
X152167056Y-110410505D01*
X152106757Y-110609286D01*
X152086397Y-110816000D01*
X152106757Y-111022713D01*
X152106757Y-111022715D01*
X152106758Y-111022718D01*
X152155168Y-111182304D01*
X152167056Y-111221494D01*
X152264972Y-111404682D01*
X152396747Y-111565252D01*
X152557319Y-111697029D01*
X152572005Y-111704879D01*
X152622653Y-111754631D01*
X152638362Y-111823868D01*
X152614145Y-111890607D01*
X152572005Y-111927121D01*
X152557319Y-111934970D01*
X152396747Y-112066747D01*
X152264972Y-112227317D01*
X152167056Y-112410505D01*
X152106757Y-112609286D01*
X152086397Y-112815999D01*
X143127500Y-112815999D01*
X143127500Y-108730500D01*
X143147502Y-108662379D01*
X143201158Y-108615886D01*
X143253500Y-108604500D01*
X143309469Y-108604500D01*
X143309471Y-108604500D01*
X143463793Y-108566463D01*
X143604529Y-108492599D01*
X143723498Y-108387201D01*
X143772645Y-108316000D01*
X152086397Y-108316000D01*
X152106757Y-108522713D01*
X152106757Y-108522715D01*
X152106758Y-108522718D01*
X152153016Y-108675210D01*
X152167056Y-108721494D01*
X152264972Y-108904682D01*
X152396747Y-109065252D01*
X152557317Y-109197026D01*
X152557317Y-109197027D01*
X152740508Y-109294945D01*
X152939282Y-109355242D01*
X153104656Y-109371530D01*
X153145999Y-109375602D01*
X153145999Y-109375601D01*
X153146000Y-109375602D01*
X153352718Y-109355242D01*
X153551492Y-109294945D01*
X153734683Y-109197027D01*
X153895252Y-109065252D01*
X154027027Y-108904683D01*
X154124945Y-108721492D01*
X154185242Y-108522718D01*
X154205602Y-108316000D01*
X154185242Y-108109282D01*
X154124945Y-107910508D01*
X154027027Y-107727317D01*
X153987023Y-107678572D01*
X153895252Y-107566747D01*
X153734682Y-107434972D01*
X153551494Y-107337056D01*
X153551493Y-107337055D01*
X153551492Y-107337055D01*
X153352718Y-107276758D01*
X153352715Y-107276757D01*
X153352713Y-107276757D01*
X153146000Y-107256397D01*
X152939286Y-107276757D01*
X152939283Y-107276757D01*
X152939282Y-107276758D01*
X152752102Y-107333538D01*
X152740505Y-107337056D01*
X152557317Y-107434972D01*
X152396747Y-107566747D01*
X152264972Y-107727317D01*
X152167056Y-107910505D01*
X152167055Y-107910507D01*
X152167055Y-107910508D01*
X152108750Y-108102717D01*
X152106757Y-108109286D01*
X152086397Y-108316000D01*
X143772645Y-108316000D01*
X143813787Y-108256395D01*
X143870149Y-108107782D01*
X143889307Y-107950000D01*
X143870149Y-107792218D01*
X143813787Y-107643605D01*
X143723498Y-107512799D01*
X143604529Y-107407401D01*
X143463793Y-107333537D01*
X143309471Y-107295500D01*
X143150529Y-107295500D01*
X142996207Y-107333537D01*
X142996206Y-107333537D01*
X142996204Y-107333538D01*
X142855472Y-107407400D01*
X142736501Y-107512799D01*
X142646212Y-107643605D01*
X142589850Y-107792219D01*
X142570693Y-107949997D01*
X142570693Y-107950000D01*
X142573727Y-107974987D01*
X142576574Y-107998437D01*
X142564927Y-108068471D01*
X142540587Y-108102717D01*
X142516724Y-108126580D01*
X142496550Y-108142964D01*
X142487419Y-108148930D01*
X142467792Y-108174146D01*
X142457463Y-108185842D01*
X142457418Y-108185886D01*
X142445212Y-108202981D01*
X142442105Y-108207148D01*
X142404691Y-108255218D01*
X142404638Y-108255322D01*
X142387259Y-108313695D01*
X142385672Y-108318650D01*
X142365888Y-108376281D01*
X142365875Y-108376370D01*
X142368392Y-108437213D01*
X142368500Y-108442420D01*
X142368500Y-114598574D01*
X142365818Y-114624431D01*
X142363581Y-114635099D01*
X129231188Y-114635099D01*
X129197252Y-114593747D01*
X129075471Y-114493806D01*
X129042469Y-114466722D01*
X128865880Y-114372333D01*
X128865879Y-114372332D01*
X128865878Y-114372332D01*
X128674269Y-114314207D01*
X128474999Y-114294581D01*
X128275730Y-114314207D01*
X128084121Y-114372332D01*
X127907532Y-114466721D01*
X127752747Y-114593747D01*
X127625721Y-114748532D01*
X127531332Y-114925121D01*
X127473207Y-115116730D01*
X127453581Y-115315999D01*
X123908500Y-115315999D01*
X123908500Y-114066000D01*
X125569435Y-114066000D01*
X125589632Y-114245257D01*
X125649210Y-114415521D01*
X125745184Y-114568263D01*
X125872736Y-114695815D01*
X126025478Y-114791789D01*
X126119546Y-114824705D01*
X126195745Y-114851368D01*
X126330046Y-114866500D01*
X126333582Y-114866500D01*
X126416418Y-114866500D01*
X126419954Y-114866500D01*
X126554255Y-114851368D01*
X126724522Y-114791789D01*
X126877262Y-114695816D01*
X127004816Y-114568262D01*
X127100789Y-114415522D01*
X127160368Y-114245255D01*
X127180565Y-114066000D01*
X127160368Y-113886745D01*
X127100789Y-113716478D01*
X127068618Y-113665278D01*
X127004815Y-113563736D01*
X126877263Y-113436184D01*
X126724521Y-113340210D01*
X126554257Y-113280632D01*
X126423463Y-113265895D01*
X126423456Y-113265894D01*
X126419954Y-113265500D01*
X126330046Y-113265500D01*
X126326544Y-113265894D01*
X126326536Y-113265895D01*
X126195742Y-113280632D01*
X126025478Y-113340210D01*
X125872736Y-113436184D01*
X125745184Y-113563736D01*
X125649210Y-113716478D01*
X125589632Y-113886742D01*
X125569435Y-114066000D01*
X123908500Y-114066000D01*
X123908500Y-109566000D01*
X125569435Y-109566000D01*
X125589632Y-109745257D01*
X125649210Y-109915521D01*
X125745184Y-110068263D01*
X125872736Y-110195815D01*
X125936689Y-110235999D01*
X126025478Y-110291789D01*
X126195745Y-110351368D01*
X126330046Y-110366500D01*
X126333582Y-110366500D01*
X126416418Y-110366500D01*
X126419954Y-110366500D01*
X126554255Y-110351368D01*
X126724522Y-110291789D01*
X126877262Y-110195816D01*
X127004816Y-110068262D01*
X127100789Y-109915522D01*
X127160368Y-109745255D01*
X127180565Y-109566000D01*
X127160368Y-109386745D01*
X127100789Y-109216478D01*
X127088567Y-109197027D01*
X127004815Y-109063736D01*
X126877263Y-108936184D01*
X126724521Y-108840210D01*
X126554257Y-108780632D01*
X126423463Y-108765895D01*
X126423456Y-108765894D01*
X126419954Y-108765500D01*
X126330046Y-108765500D01*
X126326544Y-108765894D01*
X126326536Y-108765895D01*
X126195742Y-108780632D01*
X126025478Y-108840210D01*
X125872736Y-108936184D01*
X125745184Y-109063736D01*
X125649210Y-109216478D01*
X125589632Y-109386742D01*
X125569435Y-109566000D01*
X123908500Y-109566000D01*
X123908500Y-106116000D01*
X124215397Y-106116000D01*
X124235757Y-106322713D01*
X124235757Y-106322715D01*
X124235758Y-106322718D01*
X124272157Y-106442710D01*
X124296056Y-106521494D01*
X124393972Y-106704682D01*
X124525747Y-106865252D01*
X124642793Y-106961308D01*
X124686317Y-106997027D01*
X124869508Y-107094945D01*
X125068282Y-107155242D01*
X125223199Y-107170500D01*
X125226291Y-107170500D01*
X127523709Y-107170500D01*
X127526801Y-107170500D01*
X127620708Y-107161250D01*
X127633004Y-107160040D01*
X127702757Y-107173269D01*
X127754285Y-107222109D01*
X127758836Y-107240627D01*
X128382895Y-107864686D01*
X128337881Y-107871471D01*
X128212946Y-107931637D01*
X128111295Y-108025955D01*
X128041961Y-108146045D01*
X128024098Y-108224307D01*
X127415185Y-107615394D01*
X127370948Y-107678572D01*
X127277031Y-107879975D01*
X127219517Y-108094623D01*
X127200149Y-108316000D01*
X127219517Y-108537376D01*
X127277031Y-108752024D01*
X127370947Y-108953426D01*
X127415184Y-109016603D01*
X127415185Y-109016603D01*
X128020826Y-108410961D01*
X128021467Y-108419516D01*
X128072128Y-108548598D01*
X128158586Y-108657013D01*
X128273159Y-108735127D01*
X128381625Y-108768584D01*
X127774395Y-109375813D01*
X127774395Y-109375814D01*
X127837573Y-109420052D01*
X128038975Y-109513968D01*
X128264033Y-109574272D01*
X128324656Y-109611224D01*
X128355677Y-109675084D01*
X128347249Y-109745579D01*
X128302046Y-109800326D01*
X128267998Y-109816553D01*
X128084121Y-109872331D01*
X127907532Y-109966721D01*
X127752747Y-110093747D01*
X127625721Y-110248532D01*
X127531332Y-110425121D01*
X127473207Y-110616730D01*
X127453581Y-110816000D01*
X127473207Y-111015269D01*
X127531332Y-111206878D01*
X127531333Y-111206880D01*
X127625722Y-111383469D01*
X127639892Y-111400735D01*
X127752747Y-111538252D01*
X127839632Y-111609555D01*
X127907531Y-111665278D01*
X127981616Y-111704877D01*
X128032265Y-111754629D01*
X128047975Y-111823865D01*
X128023759Y-111890604D01*
X127981619Y-111927120D01*
X127907532Y-111966721D01*
X127752747Y-112093747D01*
X127625721Y-112248532D01*
X127531332Y-112425121D01*
X127473207Y-112616730D01*
X127453581Y-112815999D01*
X127473207Y-113015269D01*
X127531332Y-113206878D01*
X127531333Y-113206880D01*
X127625722Y-113383469D01*
X127643131Y-113404682D01*
X127752747Y-113538252D01*
X127830139Y-113601764D01*
X127907531Y-113665278D01*
X128084120Y-113759667D01*
X128179925Y-113788729D01*
X128275730Y-113817792D01*
X128474999Y-113837418D01*
X128474999Y-113837417D01*
X128475000Y-113837418D01*
X128674269Y-113817792D01*
X128865880Y-113759667D01*
X129042469Y-113665278D01*
X129197252Y-113538252D01*
X129324278Y-113383469D01*
X129418667Y-113206880D01*
X129476792Y-113015269D01*
X129496418Y-112816000D01*
X129476792Y-112616731D01*
X129474532Y-112609282D01*
X129418667Y-112425121D01*
X129418667Y-112425120D01*
X129324278Y-112248531D01*
X129260764Y-112171139D01*
X129197252Y-112093747D01*
X129102948Y-112016355D01*
X129042469Y-111966722D01*
X128968381Y-111927121D01*
X128917734Y-111877370D01*
X128902024Y-111808133D01*
X128926240Y-111741394D01*
X128968380Y-111704879D01*
X129042469Y-111665278D01*
X129197252Y-111538252D01*
X129324278Y-111383469D01*
X129418667Y-111206880D01*
X129476792Y-111015269D01*
X129496418Y-110816000D01*
X129494521Y-110796734D01*
X129476792Y-110616730D01*
X129418667Y-110425121D01*
X129418667Y-110425120D01*
X129324278Y-110248531D01*
X129313994Y-110236000D01*
X130785693Y-110236000D01*
X130804850Y-110393780D01*
X130861212Y-110542394D01*
X130951501Y-110673200D01*
X131023053Y-110736590D01*
X131060778Y-110796734D01*
X131065499Y-110830902D01*
X131065499Y-111072575D01*
X131062818Y-111098427D01*
X131060580Y-111109098D01*
X131064532Y-111140794D01*
X131065500Y-111156381D01*
X131065500Y-111156448D01*
X131068955Y-111177159D01*
X131069705Y-111182304D01*
X131077241Y-111242751D01*
X131077276Y-111242861D01*
X131106255Y-111296410D01*
X131108638Y-111301039D01*
X131135406Y-111355793D01*
X131135461Y-111355866D01*
X131180284Y-111397130D01*
X131184041Y-111400735D01*
X132734581Y-112951275D01*
X132750966Y-112971450D01*
X132756932Y-112980582D01*
X132782141Y-113000203D01*
X132793842Y-113010537D01*
X132793881Y-113010576D01*
X132793884Y-113010578D01*
X132793887Y-113010581D01*
X132810999Y-113022799D01*
X132815142Y-113025889D01*
X132863234Y-113063320D01*
X132863296Y-113063352D01*
X132871017Y-113065650D01*
X132871021Y-113065653D01*
X132921743Y-113080752D01*
X132926607Y-113082311D01*
X132976673Y-113099500D01*
X132976675Y-113099500D01*
X132984280Y-113102111D01*
X132984369Y-113102124D01*
X132992408Y-113101791D01*
X132992410Y-113101792D01*
X133042002Y-113099741D01*
X133045225Y-113099608D01*
X133050431Y-113099500D01*
X139455544Y-113099500D01*
X139523665Y-113119502D01*
X139559238Y-113153921D01*
X139561502Y-113157201D01*
X139680471Y-113262599D01*
X139821207Y-113336463D01*
X139975529Y-113374500D01*
X139975531Y-113374500D01*
X140134469Y-113374500D01*
X140134471Y-113374500D01*
X140288793Y-113336463D01*
X140429529Y-113262599D01*
X140548498Y-113157201D01*
X140638787Y-113026395D01*
X140695149Y-112877782D01*
X140714307Y-112720000D01*
X140695149Y-112562218D01*
X140638787Y-112413605D01*
X140548498Y-112282799D01*
X140429529Y-112177401D01*
X140288793Y-112103537D01*
X140134471Y-112065500D01*
X139975529Y-112065500D01*
X139821207Y-112103537D01*
X139821206Y-112103537D01*
X139821204Y-112103538D01*
X139680472Y-112177400D01*
X139680470Y-112177401D01*
X139680471Y-112177401D01*
X139561502Y-112282799D01*
X139559238Y-112286078D01*
X139504081Y-112330776D01*
X139455544Y-112340500D01*
X133249384Y-112340500D01*
X133181263Y-112320498D01*
X133160289Y-112303595D01*
X131861405Y-111004710D01*
X131827379Y-110942398D01*
X131824500Y-110915615D01*
X131824500Y-110830902D01*
X131844502Y-110762781D01*
X131866947Y-110736590D01*
X131938498Y-110673201D01*
X132028787Y-110542395D01*
X132085149Y-110393782D01*
X132104307Y-110236000D01*
X132085149Y-110078218D01*
X132028787Y-109929605D01*
X131938498Y-109798799D01*
X131819529Y-109693401D01*
X131678793Y-109619537D01*
X131524471Y-109581500D01*
X131365529Y-109581500D01*
X131211207Y-109619537D01*
X131211206Y-109619537D01*
X131211204Y-109619538D01*
X131070472Y-109693400D01*
X130951501Y-109798799D01*
X130861212Y-109929605D01*
X130804850Y-110078219D01*
X130785693Y-110236000D01*
X129313994Y-110236000D01*
X129260764Y-110171139D01*
X129197252Y-110093747D01*
X129102948Y-110016355D01*
X129042469Y-109966722D01*
X128865880Y-109872333D01*
X128865879Y-109872332D01*
X128865878Y-109872332D01*
X128682001Y-109816553D01*
X128622620Y-109777638D01*
X128593704Y-109712797D01*
X128604435Y-109642616D01*
X128651405Y-109589377D01*
X128685966Y-109574272D01*
X128911025Y-109513968D01*
X129112427Y-109420052D01*
X129175603Y-109375814D01*
X129175603Y-109375812D01*
X128567104Y-108767313D01*
X128612119Y-108760529D01*
X128737054Y-108700363D01*
X128838705Y-108606045D01*
X128908039Y-108485955D01*
X128925901Y-108407692D01*
X129534812Y-109016603D01*
X129534814Y-109016603D01*
X129579052Y-108953427D01*
X129672968Y-108752024D01*
X129730482Y-108537376D01*
X129749850Y-108316000D01*
X129730482Y-108094623D01*
X129672968Y-107879975D01*
X129579051Y-107678571D01*
X129534815Y-107615395D01*
X129534813Y-107615395D01*
X128929173Y-108221034D01*
X128928533Y-108212484D01*
X128877872Y-108083402D01*
X128791414Y-107974987D01*
X128676841Y-107896873D01*
X128568374Y-107863415D01*
X129175603Y-107256185D01*
X129175603Y-107256184D01*
X129112426Y-107211947D01*
X128911024Y-107118031D01*
X128696376Y-107060517D01*
X128474999Y-107041149D01*
X128347753Y-107052282D01*
X128278148Y-107038293D01*
X128227156Y-106988893D01*
X128210966Y-106919767D01*
X128234719Y-106852862D01*
X128239373Y-106846828D01*
X128356025Y-106704685D01*
X128356027Y-106704683D01*
X128453945Y-106521492D01*
X128514242Y-106322718D01*
X128534602Y-106116000D01*
X128514242Y-105909282D01*
X128453945Y-105710508D01*
X128356027Y-105527317D01*
X128340361Y-105508228D01*
X128224252Y-105366747D01*
X128077119Y-105245999D01*
X154096580Y-105245999D01*
X154116231Y-105508229D01*
X154174746Y-105764599D01*
X154270817Y-106009384D01*
X154402296Y-106237113D01*
X154402298Y-106237116D01*
X154402299Y-106237117D01*
X154566254Y-106442710D01*
X154740200Y-106604108D01*
X154759023Y-106621573D01*
X154880927Y-106704685D01*
X154976290Y-106769702D01*
X155099115Y-106828851D01*
X155213211Y-106883798D01*
X155269252Y-106901084D01*
X155464492Y-106961308D01*
X155724518Y-107000500D01*
X155724520Y-107000500D01*
X155987480Y-107000500D01*
X155987482Y-107000500D01*
X156247508Y-106961308D01*
X156498788Y-106883798D01*
X156735710Y-106769702D01*
X156952980Y-106621570D01*
X157145746Y-106442710D01*
X157309701Y-106237117D01*
X157441183Y-106009384D01*
X157537254Y-105764598D01*
X157595769Y-105508228D01*
X157615420Y-105246000D01*
X157595769Y-104983772D01*
X157537254Y-104727402D01*
X157441183Y-104482616D01*
X157309701Y-104254883D01*
X157145746Y-104049290D01*
X156952980Y-103870430D01*
X156952981Y-103870430D01*
X156952976Y-103870426D01*
X156735710Y-103722298D01*
X156498788Y-103608201D01*
X156317107Y-103552160D01*
X156247508Y-103530692D01*
X155987482Y-103491500D01*
X155724518Y-103491500D01*
X155464492Y-103530692D01*
X155464488Y-103530693D01*
X155464489Y-103530693D01*
X155213211Y-103608201D01*
X154976289Y-103722298D01*
X154759023Y-103870426D01*
X154653227Y-103968590D01*
X154566254Y-104049290D01*
X154473195Y-104165981D01*
X154402296Y-104254886D01*
X154270817Y-104482615D01*
X154174746Y-104727400D01*
X154116231Y-104983770D01*
X154096580Y-105245999D01*
X128077119Y-105245999D01*
X128063682Y-105234972D01*
X127880494Y-105137056D01*
X127880493Y-105137055D01*
X127880492Y-105137055D01*
X127681718Y-105076758D01*
X127681715Y-105076757D01*
X127681713Y-105076757D01*
X127529881Y-105061803D01*
X127529873Y-105061802D01*
X127526801Y-105061500D01*
X125223199Y-105061500D01*
X125220127Y-105061802D01*
X125220118Y-105061803D01*
X125068286Y-105076757D01*
X125068283Y-105076757D01*
X125068282Y-105076758D01*
X124869508Y-105137055D01*
X124869505Y-105137056D01*
X124686317Y-105234972D01*
X124525747Y-105366747D01*
X124393972Y-105527317D01*
X124296056Y-105710505D01*
X124235757Y-105909286D01*
X124215397Y-106116000D01*
X123908500Y-106116000D01*
X123908500Y-103376557D01*
X123928502Y-103308436D01*
X123937092Y-103296633D01*
X123993025Y-103228479D01*
X124010479Y-103211025D01*
X124078625Y-103155099D01*
X124143973Y-103127347D01*
X124158558Y-103126500D01*
X165929442Y-103126500D01*
X165997563Y-103146502D01*
G37*
%TD.AperFunction*%
%TD*%
M02*
