M48
; DRILL file {KiCad 7.0.2} date Fri May 26 00:25:13 2023
; FORMAT={-:-/ absolute / metric / decimal}
; #@! TF.CreationDate,2023-05-26T00:25:13+02:00
; #@! TF.GenerationSoftware,Kicad,Pcbnew,7.0.2
; #@! TF.FileFunction,MixedPlating,1,2
FMAT,2
METRIC
; #@! TA.AperFunction,Plated,PTH,ViaDrill
T1C0.400
; #@! TA.AperFunction,Plated,PTH,ComponentDrill
T2C0.920
; #@! TA.AperFunction,Plated,PTH,ComponentDrill
T3C0.950
; #@! TA.AperFunction,Plated,PTH,ComponentDrill
T4C1.000
; #@! TA.AperFunction,Plated,PTH,ComponentDrill
T5C2.300
; #@! TA.AperFunction,NonPlated,NPTH,ComponentDrill
T6C1.100
%
G90
G05
T1
X131.445Y-108.966
X131.445Y-110.236
X132.969Y-104.902
X138.049Y-104.902
X140.055Y-112.72
X143.23Y-107.95
X143.357Y-115.26
X143.357Y-116.53
X143.357Y-117.8
X144.5Y-115.26
X144.5Y-116.53
X144.5Y-117.8
X147.066Y-104.775
X148.971Y-117.856
X150.114Y-116.586
T2
X128.475Y-108.316
X128.475Y-110.816
X128.475Y-112.816
X128.475Y-115.316
T3
X153.146Y-108.316
X153.146Y-110.816
X153.146Y-112.816
X153.146Y-115.316
T5
X155.856Y-105.246
X155.856Y-118.386
T6
X126.375Y-109.566
X126.375Y-114.066
T4
G00X127.125Y-106.116
M15
G01X125.625Y-106.116
M16
G05
G00X127.125Y-117.516
M15
G01X125.625Y-117.516
M16
G05
T0
M30
