%TF.GenerationSoftware,KiCad,Pcbnew,7.0.2*%
%TF.CreationDate,2023-05-26T00:25:00+02:00*%
%TF.ProjectId,usb-power-stick,7573622d-706f-4776-9572-2d737469636b,rev?*%
%TF.SameCoordinates,Original*%
%TF.FileFunction,Soldermask,Top*%
%TF.FilePolarity,Negative*%
%FSLAX46Y46*%
G04 Gerber Fmt 4.6, Leading zero omitted, Abs format (unit mm)*
G04 Created by KiCad (PCBNEW 7.0.2) date 2023-05-26 00:25:00*
%MOMM*%
%LPD*%
G01*
G04 APERTURE LIST*
G04 Aperture macros list*
%AMRoundRect*
0 Rectangle with rounded corners*
0 $1 Rounding radius*
0 $2 $3 $4 $5 $6 $7 $8 $9 X,Y pos of 4 corners*
0 Add a 4 corners polygon primitive as box body*
4,1,4,$2,$3,$4,$5,$6,$7,$8,$9,$2,$3,0*
0 Add four circle primitives for the rounded corners*
1,1,$1+$1,$2,$3*
1,1,$1+$1,$4,$5*
1,1,$1+$1,$6,$7*
1,1,$1+$1,$8,$9*
0 Add four rect primitives between the rounded corners*
20,1,$1+$1,$2,$3,$4,$5,0*
20,1,$1+$1,$4,$5,$6,$7,0*
20,1,$1+$1,$6,$7,$8,$9,0*
20,1,$1+$1,$8,$9,$2,$3,0*%
G04 Aperture macros list end*
%ADD10R,1.500000X1.600000*%
%ADD11C,1.600000*%
%ADD12C,3.000000*%
%ADD13RoundRect,0.250000X0.450000X-0.262500X0.450000X0.262500X-0.450000X0.262500X-0.450000X-0.262500X0*%
%ADD14RoundRect,0.250000X-0.450000X0.262500X-0.450000X-0.262500X0.450000X-0.262500X0.450000X0.262500X0*%
%ADD15RoundRect,0.243750X0.456250X-0.243750X0.456250X0.243750X-0.456250X0.243750X-0.456250X-0.243750X0*%
%ADD16C,0.001000*%
%ADD17C,1.524000*%
%ADD18O,3.800000X1.600000*%
%ADD19RoundRect,0.250000X-0.262500X-0.450000X0.262500X-0.450000X0.262500X0.450000X-0.262500X0.450000X0*%
%ADD20RoundRect,0.150000X-0.825000X-0.150000X0.825000X-0.150000X0.825000X0.150000X-0.825000X0.150000X0*%
%ADD21RoundRect,0.150000X0.587500X0.150000X-0.587500X0.150000X-0.587500X-0.150000X0.587500X-0.150000X0*%
G04 APERTURE END LIST*
D10*
%TO.C,J2*%
X153146000Y-115316000D03*
D11*
X153146000Y-112816000D03*
X153146000Y-110816000D03*
X153146000Y-108316000D03*
D12*
X155856000Y-118386000D03*
X155856000Y-105246000D03*
%TD*%
D13*
%TO.C,C2*%
X134747000Y-106703500D03*
X134747000Y-104878500D03*
%TD*%
D14*
%TO.C,C3*%
X148971000Y-113260500D03*
X148971000Y-115085500D03*
%TD*%
D13*
%TO.C,R3*%
X145282500Y-106703500D03*
X145282500Y-104878500D03*
%TD*%
D14*
%TO.C,C4*%
X139192000Y-104878500D03*
X139192000Y-106703500D03*
%TD*%
D15*
%TO.C,D1*%
X149225000Y-110157500D03*
X149225000Y-108282500D03*
%TD*%
D16*
%TO.C,J1*%
X126375000Y-109566000D03*
X126375000Y-114066000D03*
D17*
X128475000Y-115316000D03*
X128475000Y-112816000D03*
X128475000Y-110816000D03*
X128475000Y-108316000D03*
D18*
X126375000Y-106116000D03*
X126375000Y-117516000D03*
%TD*%
D13*
%TO.C,R2*%
X143250500Y-106703500D03*
X143250500Y-104878500D03*
%TD*%
%TO.C,C1*%
X136779000Y-106703500D03*
X136779000Y-104878500D03*
%TD*%
D19*
%TO.C,R4*%
X145010500Y-108458000D03*
X146835500Y-108458000D03*
%TD*%
D13*
%TO.C,R1*%
X141224000Y-106703500D03*
X141224000Y-104878500D03*
%TD*%
D20*
%TO.C,U2*%
X141517000Y-110180000D03*
X141517000Y-111450000D03*
X141517000Y-112720000D03*
X141517000Y-113990000D03*
X141517000Y-115260000D03*
X141517000Y-116530000D03*
X141517000Y-117800000D03*
X146467000Y-117800000D03*
X146467000Y-116530000D03*
X146467000Y-115260000D03*
X146467000Y-113990000D03*
X146467000Y-112720000D03*
X146467000Y-111450000D03*
X146467000Y-110180000D03*
%TD*%
%TO.C,U1*%
X133288000Y-108966000D03*
X133288000Y-110236000D03*
X133288000Y-111506000D03*
X133288000Y-112776000D03*
X133288000Y-114046000D03*
X133288000Y-115316000D03*
X133288000Y-116586000D03*
X133288000Y-117856000D03*
X138238000Y-117856000D03*
X138238000Y-116586000D03*
X138238000Y-115316000D03*
X138238000Y-114046000D03*
X138238000Y-112776000D03*
X138238000Y-111506000D03*
X138238000Y-110236000D03*
X138238000Y-108966000D03*
%TD*%
D21*
%TO.C,Q1*%
X149273500Y-106741000D03*
X149273500Y-104841000D03*
X147398500Y-105791000D03*
%TD*%
M02*
