%TF.GenerationSoftware,KiCad,Pcbnew,7.0.2*%
%TF.CreationDate,2023-05-26T00:25:00+02:00*%
%TF.ProjectId,usb-power-stick,7573622d-706f-4776-9572-2d737469636b,rev?*%
%TF.SameCoordinates,Original*%
%TF.FileFunction,Copper,L1,Top*%
%TF.FilePolarity,Positive*%
%FSLAX46Y46*%
G04 Gerber Fmt 4.6, Leading zero omitted, Abs format (unit mm)*
G04 Created by KiCad (PCBNEW 7.0.2) date 2023-05-26 00:25:00*
%MOMM*%
%LPD*%
G01*
G04 APERTURE LIST*
G04 Aperture macros list*
%AMRoundRect*
0 Rectangle with rounded corners*
0 $1 Rounding radius*
0 $2 $3 $4 $5 $6 $7 $8 $9 X,Y pos of 4 corners*
0 Add a 4 corners polygon primitive as box body*
4,1,4,$2,$3,$4,$5,$6,$7,$8,$9,$2,$3,0*
0 Add four circle primitives for the rounded corners*
1,1,$1+$1,$2,$3*
1,1,$1+$1,$4,$5*
1,1,$1+$1,$6,$7*
1,1,$1+$1,$8,$9*
0 Add four rect primitives between the rounded corners*
20,1,$1+$1,$2,$3,$4,$5,0*
20,1,$1+$1,$4,$5,$6,$7,0*
20,1,$1+$1,$6,$7,$8,$9,0*
20,1,$1+$1,$8,$9,$2,$3,0*%
G04 Aperture macros list end*
%TA.AperFunction,ComponentPad*%
%ADD10R,1.500000X1.600000*%
%TD*%
%TA.AperFunction,ComponentPad*%
%ADD11C,1.600000*%
%TD*%
%TA.AperFunction,ComponentPad*%
%ADD12C,3.000000*%
%TD*%
%TA.AperFunction,SMDPad,CuDef*%
%ADD13RoundRect,0.250000X0.450000X-0.262500X0.450000X0.262500X-0.450000X0.262500X-0.450000X-0.262500X0*%
%TD*%
%TA.AperFunction,SMDPad,CuDef*%
%ADD14RoundRect,0.250000X-0.450000X0.262500X-0.450000X-0.262500X0.450000X-0.262500X0.450000X0.262500X0*%
%TD*%
%TA.AperFunction,SMDPad,CuDef*%
%ADD15RoundRect,0.243750X0.456250X-0.243750X0.456250X0.243750X-0.456250X0.243750X-0.456250X-0.243750X0*%
%TD*%
%TA.AperFunction,ComponentPad*%
%ADD16C,1.524000*%
%TD*%
%TA.AperFunction,ComponentPad*%
%ADD17O,3.800000X1.600000*%
%TD*%
%TA.AperFunction,SMDPad,CuDef*%
%ADD18RoundRect,0.250000X-0.262500X-0.450000X0.262500X-0.450000X0.262500X0.450000X-0.262500X0.450000X0*%
%TD*%
%TA.AperFunction,SMDPad,CuDef*%
%ADD19RoundRect,0.150000X-0.825000X-0.150000X0.825000X-0.150000X0.825000X0.150000X-0.825000X0.150000X0*%
%TD*%
%TA.AperFunction,SMDPad,CuDef*%
%ADD20RoundRect,0.150000X0.587500X0.150000X-0.587500X0.150000X-0.587500X-0.150000X0.587500X-0.150000X0*%
%TD*%
%TA.AperFunction,ViaPad*%
%ADD21C,0.800000*%
%TD*%
%TA.AperFunction,Conductor*%
%ADD22C,0.250000*%
%TD*%
%TA.AperFunction,Conductor*%
%ADD23C,0.500000*%
%TD*%
G04 APERTURE END LIST*
D10*
%TO.P,J2,1,VBUS*%
%TO.N,Net-(C1-Pad1)*%
X153146000Y-115316000D03*
D11*
%TO.P,J2,2,D-*%
%TO.N,unconnected-(J2-Pad2)*%
X153146000Y-112816000D03*
%TO.P,J2,3,D+*%
%TO.N,unconnected-(J2-Pad3)*%
X153146000Y-110816000D03*
%TO.P,J2,4,GND*%
%TO.N,Net-(J2-Pad4)*%
X153146000Y-108316000D03*
D12*
%TO.P,J2,5,Shield*%
%TO.N,unconnected-(J2-Pad5)*%
X155856000Y-118386000D03*
X155856000Y-105246000D03*
%TD*%
D13*
%TO.P,C2,1*%
%TO.N,Net-(C2-Pad1)*%
X134747000Y-106703500D03*
%TO.P,C2,2*%
%TO.N,GND*%
X134747000Y-104878500D03*
%TD*%
D14*
%TO.P,C3,1*%
%TO.N,Net-(C1-Pad1)*%
X148971000Y-113260500D03*
%TO.P,C3,2*%
%TO.N,GND*%
X148971000Y-115085500D03*
%TD*%
D13*
%TO.P,R3,1*%
%TO.N,Net-(Q1-Pad1)*%
X145282500Y-106703500D03*
%TO.P,R3,2*%
%TO.N,GND*%
X145282500Y-104878500D03*
%TD*%
D14*
%TO.P,C4,1*%
%TO.N,GND*%
X139192000Y-104878500D03*
%TO.P,C4,2*%
%TO.N,Net-(U2-Pad1)*%
X139192000Y-106703500D03*
%TD*%
D15*
%TO.P,D1,1,K*%
%TO.N,Net-(J2-Pad4)*%
X149225000Y-110157500D03*
%TO.P,D1,2,A*%
%TO.N,Net-(R4-Pad2)*%
X149225000Y-108282500D03*
%TD*%
D16*
%TO.P,J1,1,VBUS*%
%TO.N,Net-(C1-Pad1)*%
X128475000Y-115316000D03*
%TO.P,J1,2,D-*%
%TO.N,Net-(J1-Pad2)*%
X128475000Y-112816000D03*
%TO.P,J1,3,D+*%
%TO.N,Net-(J1-Pad3)*%
X128475000Y-110816000D03*
%TO.P,J1,4,GND*%
%TO.N,GND*%
X128475000Y-108316000D03*
D17*
%TO.P,J1,5,Shield*%
%TO.N,unconnected-(J1-Pad5)*%
X126375000Y-106116000D03*
X126375000Y-117516000D03*
%TD*%
D13*
%TO.P,R2,1*%
%TO.N,Net-(R2-Pad1)*%
X143250500Y-106703500D03*
%TO.P,R2,2*%
%TO.N,Net-(Q1-Pad1)*%
X143250500Y-104878500D03*
%TD*%
%TO.P,C1,1*%
%TO.N,Net-(C1-Pad1)*%
X136779000Y-106703500D03*
%TO.P,C1,2*%
%TO.N,GND*%
X136779000Y-104878500D03*
%TD*%
D18*
%TO.P,R4,1*%
%TO.N,Net-(C1-Pad1)*%
X145010500Y-108458000D03*
%TO.P,R4,2*%
%TO.N,Net-(R4-Pad2)*%
X146835500Y-108458000D03*
%TD*%
D13*
%TO.P,R1,1*%
%TO.N,Net-(C1-Pad1)*%
X141224000Y-106703500D03*
%TO.P,R1,2*%
%TO.N,Net-(U2-Pad1)*%
X141224000Y-104878500D03*
%TD*%
D19*
%TO.P,U2,1,~{R}*%
%TO.N,Net-(U2-Pad1)*%
X141517000Y-110180000D03*
%TO.P,U2,2,D*%
%TO.N,Net-(U1-Pad14)*%
X141517000Y-111450000D03*
%TO.P,U2,3,C*%
%TO.N,Net-(U1-Pad2)*%
X141517000Y-112720000D03*
%TO.P,U2,4,~{S}*%
%TO.N,Net-(C1-Pad1)*%
X141517000Y-113990000D03*
%TO.P,U2,5,Q*%
%TO.N,Net-(R2-Pad1)*%
X141517000Y-115260000D03*
%TO.P,U2,6,~{Q}*%
%TO.N,unconnected-(U2-Pad6)*%
X141517000Y-116530000D03*
%TO.P,U2,7,GND*%
%TO.N,GND*%
X141517000Y-117800000D03*
%TO.P,U2,8,~{Q}*%
%TO.N,unconnected-(U2-Pad8)*%
X146467000Y-117800000D03*
%TO.P,U2,9,Q*%
%TO.N,unconnected-(U2-Pad9)*%
X146467000Y-116530000D03*
%TO.P,U2,10,~{S}*%
%TO.N,GND*%
X146467000Y-115260000D03*
%TO.P,U2,11,C*%
X146467000Y-113990000D03*
%TO.P,U2,12,D*%
X146467000Y-112720000D03*
%TO.P,U2,13,~{R}*%
X146467000Y-111450000D03*
%TO.P,U2,14,VCC*%
%TO.N,Net-(C1-Pad1)*%
X146467000Y-110180000D03*
%TD*%
%TO.P,U1,1,GND*%
%TO.N,GND*%
X133288000Y-108966000D03*
%TO.P,U1,2,TXD*%
%TO.N,Net-(U1-Pad2)*%
X133288000Y-110236000D03*
%TO.P,U1,3,RXD*%
%TO.N,unconnected-(U1-Pad3)*%
X133288000Y-111506000D03*
%TO.P,U1,4,V3*%
%TO.N,Net-(C2-Pad1)*%
X133288000Y-112776000D03*
%TO.P,U1,5,UD+*%
%TO.N,Net-(J1-Pad3)*%
X133288000Y-114046000D03*
%TO.P,U1,6,UD-*%
%TO.N,Net-(J1-Pad2)*%
X133288000Y-115316000D03*
%TO.P,U1,7,NC*%
%TO.N,unconnected-(U1-Pad7)*%
X133288000Y-116586000D03*
%TO.P,U1,8,NC*%
%TO.N,unconnected-(U1-Pad8)*%
X133288000Y-117856000D03*
%TO.P,U1,9,~{CTS}*%
%TO.N,unconnected-(U1-Pad9)*%
X138238000Y-117856000D03*
%TO.P,U1,10,~{DSR}*%
%TO.N,unconnected-(U1-Pad10)*%
X138238000Y-116586000D03*
%TO.P,U1,11,~{RI}*%
%TO.N,unconnected-(U1-Pad11)*%
X138238000Y-115316000D03*
%TO.P,U1,12,~{DCD}*%
%TO.N,unconnected-(U1-Pad12)*%
X138238000Y-114046000D03*
%TO.P,U1,13,~{DTR}*%
%TO.N,unconnected-(U1-Pad13)*%
X138238000Y-112776000D03*
%TO.P,U1,14,~{RTS}*%
%TO.N,Net-(U1-Pad14)*%
X138238000Y-111506000D03*
%TO.P,U1,15,R232*%
%TO.N,unconnected-(U1-Pad15)*%
X138238000Y-110236000D03*
%TO.P,U1,16,VCC*%
%TO.N,Net-(C1-Pad1)*%
X138238000Y-108966000D03*
%TD*%
D20*
%TO.P,Q1,1,G*%
%TO.N,Net-(Q1-Pad1)*%
X149273500Y-106741000D03*
%TO.P,Q1,2,S*%
%TO.N,GND*%
X149273500Y-104841000D03*
%TO.P,Q1,3,D*%
%TO.N,Net-(J2-Pad4)*%
X147398500Y-105791000D03*
%TD*%
D21*
%TO.N,GND*%
X144500000Y-116530000D03*
X131445000Y-108966000D03*
X132969000Y-104902000D03*
X144500000Y-115260000D03*
X143357000Y-117800000D03*
X138049000Y-104902000D03*
X147066000Y-104775000D03*
X143357000Y-116530000D03*
X150114000Y-116586000D03*
X148971000Y-117856000D03*
X144500000Y-117800000D03*
%TO.N,Net-(U1-Pad2)*%
X131445000Y-110236000D03*
X140055000Y-112720000D03*
%TO.N,Net-(R2-Pad1)*%
X143230000Y-107950000D03*
X143357000Y-115260000D03*
%TD*%
D22*
%TO.N,Net-(C1-Pad1)*%
X145010500Y-110132500D02*
X144963000Y-110180000D01*
D23*
X152146000Y-119634000D02*
X153146000Y-118634000D01*
D22*
X153146000Y-115316000D02*
X151090500Y-113260500D01*
X141517000Y-113990000D02*
X143357000Y-113990000D01*
X143992000Y-109321000D02*
X143383000Y-108712000D01*
X136779000Y-106703500D02*
X136779000Y-107950000D01*
D23*
X153146000Y-118634000D02*
X153146000Y-115316000D01*
D22*
X143383000Y-108712000D02*
X141859000Y-108712000D01*
X147518000Y-110180000D02*
X148082000Y-110744000D01*
X137564500Y-106703500D02*
X138238000Y-107377000D01*
X143992000Y-113355000D02*
X143992000Y-110180000D01*
X148082000Y-110744000D02*
X148082000Y-112371500D01*
X135737000Y-108992000D02*
X135737000Y-119578000D01*
X138238000Y-107377000D02*
X138238000Y-108966000D01*
X136779000Y-106703500D02*
X137564500Y-106703500D01*
D23*
X129413000Y-116254000D02*
X129413000Y-118237000D01*
D22*
X143992000Y-110180000D02*
X144963000Y-110180000D01*
D23*
X130810000Y-119634000D02*
X152146000Y-119634000D01*
D22*
X141859000Y-108712000D02*
X141224000Y-108077000D01*
X136779000Y-107950000D02*
X135737000Y-108992000D01*
D23*
X129413000Y-118237000D02*
X130810000Y-119634000D01*
D22*
X148082000Y-112371500D02*
X148971000Y-113260500D01*
D23*
X128475000Y-115316000D02*
X129413000Y-116254000D01*
D22*
X143357000Y-113990000D02*
X143992000Y-113355000D01*
X146467000Y-110180000D02*
X147518000Y-110180000D01*
X141224000Y-108077000D02*
X141224000Y-106703500D01*
X144963000Y-110180000D02*
X146467000Y-110180000D01*
X143992000Y-110180000D02*
X143992000Y-109321000D01*
X151090500Y-113260500D02*
X148971000Y-113260500D01*
X145010500Y-108458000D02*
X145010500Y-110132500D01*
%TO.N,Net-(C2-Pad1)*%
X134747000Y-106703500D02*
X134747000Y-112268000D01*
X134239000Y-112776000D02*
X133288000Y-112776000D01*
X134747000Y-112268000D02*
X134239000Y-112776000D01*
%TO.N,Net-(J1-Pad2)*%
X133288000Y-115316000D02*
X130975000Y-115316000D01*
X130975000Y-115316000D02*
X128475000Y-112816000D01*
%TO.N,Net-(J1-Pad3)*%
X133288000Y-114046000D02*
X131705000Y-114046000D01*
X131705000Y-114046000D02*
X128475000Y-110816000D01*
D23*
%TO.N,Net-(J2-Pad4)*%
X152527000Y-105791000D02*
X147398500Y-105791000D01*
D22*
X151526000Y-108316000D02*
X153146000Y-108316000D01*
X151130000Y-108712000D02*
X151526000Y-108316000D01*
X151130000Y-109728000D02*
X151130000Y-108712000D01*
X150700500Y-110157500D02*
X151130000Y-109728000D01*
D23*
X153146000Y-108316000D02*
X153146000Y-106410000D01*
X153146000Y-106410000D02*
X152527000Y-105791000D01*
D22*
X149225000Y-110157500D02*
X150700500Y-110157500D01*
%TO.N,Net-(Q1-Pad1)*%
X143457500Y-104878500D02*
X145282500Y-106703500D01*
X149273500Y-106741000D02*
X145320000Y-106741000D01*
%TO.N,Net-(U2-Pad1)*%
X139399000Y-106703500D02*
X141224000Y-104878500D01*
X141517000Y-110180000D02*
X139192000Y-107855000D01*
X139192000Y-107855000D02*
X139192000Y-106703500D01*
%TO.N,Net-(U1-Pad2)*%
X141517000Y-112720000D02*
X140055000Y-112720000D01*
X133288000Y-110236000D02*
X131445000Y-110236000D01*
%TO.N,Net-(U1-Pad14)*%
X138238000Y-111506000D02*
X140692500Y-111506000D01*
%TO.N,Net-(R2-Pad1)*%
X143230000Y-107950000D02*
X143230000Y-106724000D01*
X143357000Y-115260000D02*
X141517000Y-115260000D01*
%TO.N,Net-(R4-Pad2)*%
X146835500Y-108458000D02*
X149049500Y-108458000D01*
%TD*%
%TA.AperFunction,Conductor*%
%TO.N,GND*%
G36*
X137672955Y-107355866D02*
G01*
X137701665Y-107377359D01*
X137821595Y-107497289D01*
X137855621Y-107559601D01*
X137858500Y-107586384D01*
X137858500Y-108285500D01*
X137838498Y-108353621D01*
X137784842Y-108400114D01*
X137732500Y-108411500D01*
X137381166Y-108411500D01*
X137333805Y-108419000D01*
X137286444Y-108426502D01*
X137172274Y-108484675D01*
X137081675Y-108575274D01*
X137023502Y-108689444D01*
X137020416Y-108708930D01*
X137008500Y-108784166D01*
X137008500Y-109147834D01*
X137019372Y-109216478D01*
X137023502Y-109242555D01*
X137081675Y-109356725D01*
X137172274Y-109447324D01*
X137172276Y-109447325D01*
X137172277Y-109447326D01*
X137238952Y-109481299D01*
X137253542Y-109488733D01*
X137305157Y-109537482D01*
X137322223Y-109606397D01*
X137299322Y-109673598D01*
X137253542Y-109713267D01*
X137172274Y-109754675D01*
X137081675Y-109845274D01*
X137023502Y-109959444D01*
X137022349Y-109966722D01*
X137008500Y-110054166D01*
X137008500Y-110417834D01*
X137008893Y-110420313D01*
X137023502Y-110512555D01*
X137081675Y-110626725D01*
X137172274Y-110717324D01*
X137172276Y-110717325D01*
X137172277Y-110717326D01*
X137205983Y-110734500D01*
X137253542Y-110758733D01*
X137305157Y-110807482D01*
X137322223Y-110876397D01*
X137299322Y-110943598D01*
X137253542Y-110983267D01*
X137172274Y-111024675D01*
X137081675Y-111115274D01*
X137023502Y-111229444D01*
X137023501Y-111229445D01*
X137023502Y-111229445D01*
X137008500Y-111324166D01*
X137008500Y-111687834D01*
X137011200Y-111704879D01*
X137023502Y-111782555D01*
X137081675Y-111896725D01*
X137172274Y-111987324D01*
X137172276Y-111987325D01*
X137172277Y-111987326D01*
X137205983Y-112004500D01*
X137253542Y-112028733D01*
X137305157Y-112077482D01*
X137322223Y-112146397D01*
X137299322Y-112213598D01*
X137253542Y-112253267D01*
X137172274Y-112294675D01*
X137081675Y-112385274D01*
X137023502Y-112499444D01*
X137021179Y-112514114D01*
X137008500Y-112594166D01*
X137008500Y-112957834D01*
X137011297Y-112975494D01*
X137023502Y-113052555D01*
X137081675Y-113166725D01*
X137172274Y-113257324D01*
X137172276Y-113257325D01*
X137172277Y-113257326D01*
X137221491Y-113282402D01*
X137253542Y-113298733D01*
X137305157Y-113347482D01*
X137322223Y-113416397D01*
X137299322Y-113483598D01*
X137253542Y-113523267D01*
X137172274Y-113564675D01*
X137081675Y-113655274D01*
X137023502Y-113769444D01*
X137023501Y-113769445D01*
X137023502Y-113769445D01*
X137008500Y-113864166D01*
X137008500Y-114227834D01*
X137019526Y-114297453D01*
X137023502Y-114322555D01*
X137081675Y-114436725D01*
X137172274Y-114527324D01*
X137172276Y-114527325D01*
X137172277Y-114527326D01*
X137205983Y-114544500D01*
X137253542Y-114568733D01*
X137305157Y-114617482D01*
X137322223Y-114686397D01*
X137299322Y-114753598D01*
X137253542Y-114793267D01*
X137172274Y-114834675D01*
X137081675Y-114925274D01*
X137023502Y-115039444D01*
X137023501Y-115039445D01*
X137023502Y-115039445D01*
X137008500Y-115134166D01*
X137008500Y-115497834D01*
X137013218Y-115527620D01*
X137023502Y-115592555D01*
X137081675Y-115706725D01*
X137172274Y-115797324D01*
X137172276Y-115797325D01*
X137172277Y-115797326D01*
X137205983Y-115814500D01*
X137253542Y-115838733D01*
X137305157Y-115887482D01*
X137322223Y-115956397D01*
X137299322Y-116023598D01*
X137253542Y-116063267D01*
X137172274Y-116104675D01*
X137081675Y-116195274D01*
X137023502Y-116309444D01*
X137008500Y-116404167D01*
X137008500Y-116767832D01*
X137023502Y-116862555D01*
X137081675Y-116976725D01*
X137172274Y-117067324D01*
X137172276Y-117067325D01*
X137172277Y-117067326D01*
X137205983Y-117084500D01*
X137253542Y-117108733D01*
X137305157Y-117157482D01*
X137322223Y-117226397D01*
X137299322Y-117293598D01*
X137253542Y-117333267D01*
X137172274Y-117374675D01*
X137081675Y-117465274D01*
X137023502Y-117579444D01*
X137023501Y-117579445D01*
X137023502Y-117579445D01*
X137008500Y-117674166D01*
X137008500Y-118037834D01*
X137019088Y-118104683D01*
X137023502Y-118132555D01*
X137081675Y-118246725D01*
X137172274Y-118337324D01*
X137172276Y-118337325D01*
X137172277Y-118337326D01*
X137286445Y-118395498D01*
X137381166Y-118410500D01*
X137381167Y-118410500D01*
X139094833Y-118410500D01*
X139094834Y-118410500D01*
X139189555Y-118395498D01*
X139303723Y-118337326D01*
X139394326Y-118246723D01*
X139452498Y-118132555D01*
X139464940Y-118054000D01*
X140037007Y-118054000D01*
X140083318Y-118213399D01*
X140167947Y-118356501D01*
X140285498Y-118474052D01*
X140428600Y-118558681D01*
X140588247Y-118605064D01*
X140623084Y-118607806D01*
X140628013Y-118607999D01*
X141263000Y-118607999D01*
X141263000Y-118054000D01*
X141771000Y-118054000D01*
X141771000Y-118607999D01*
X142405983Y-118607999D01*
X142410917Y-118607805D01*
X142445752Y-118605064D01*
X142605398Y-118558682D01*
X142748501Y-118474052D01*
X142866052Y-118356501D01*
X142950681Y-118213399D01*
X142996993Y-118054000D01*
X141771000Y-118054000D01*
X141263000Y-118054000D01*
X140037007Y-118054000D01*
X139464940Y-118054000D01*
X139467500Y-118037834D01*
X139467500Y-117674166D01*
X139452498Y-117579445D01*
X139394326Y-117465277D01*
X139394325Y-117465276D01*
X139394324Y-117465274D01*
X139303725Y-117374675D01*
X139300422Y-117372992D01*
X139222455Y-117333266D01*
X139170842Y-117284519D01*
X139153776Y-117215604D01*
X139176677Y-117148402D01*
X139222455Y-117108734D01*
X139303723Y-117067326D01*
X139394326Y-116976723D01*
X139452498Y-116862555D01*
X139467500Y-116767834D01*
X139467500Y-116404166D01*
X139452498Y-116309445D01*
X139394326Y-116195277D01*
X139394325Y-116195276D01*
X139394324Y-116195274D01*
X139303725Y-116104675D01*
X139276502Y-116090804D01*
X139222455Y-116063266D01*
X139170842Y-116014519D01*
X139153776Y-115945604D01*
X139176677Y-115878402D01*
X139222455Y-115838734D01*
X139303723Y-115797326D01*
X139394326Y-115706723D01*
X139452498Y-115592555D01*
X139467500Y-115497834D01*
X139467500Y-115134166D01*
X139452498Y-115039445D01*
X139394326Y-114925277D01*
X139394325Y-114925276D01*
X139394324Y-114925274D01*
X139303725Y-114834675D01*
X139297494Y-114831500D01*
X139222455Y-114793266D01*
X139170842Y-114744519D01*
X139153776Y-114675604D01*
X139176677Y-114608402D01*
X139222455Y-114568734D01*
X139303723Y-114527326D01*
X139394326Y-114436723D01*
X139452498Y-114322555D01*
X139467500Y-114227834D01*
X139467500Y-113864166D01*
X139452498Y-113769445D01*
X139394326Y-113655277D01*
X139394325Y-113655276D01*
X139394324Y-113655274D01*
X139303725Y-113564675D01*
X139300422Y-113562992D01*
X139222455Y-113523266D01*
X139170842Y-113474519D01*
X139153776Y-113405604D01*
X139176677Y-113338402D01*
X139222455Y-113298734D01*
X139303723Y-113257326D01*
X139394039Y-113167009D01*
X139456349Y-113132986D01*
X139527165Y-113138050D01*
X139566685Y-113161792D01*
X139680471Y-113262599D01*
X139821207Y-113336463D01*
X139975529Y-113374500D01*
X139975531Y-113374500D01*
X140134472Y-113374500D01*
X140166120Y-113366699D01*
X140288793Y-113336463D01*
X140288796Y-113336461D01*
X140294116Y-113335150D01*
X140365044Y-113338268D01*
X140423027Y-113379237D01*
X140449656Y-113445051D01*
X140436475Y-113514813D01*
X140413367Y-113546583D01*
X140360674Y-113599276D01*
X140302502Y-113713444D01*
X140301152Y-113721967D01*
X140287500Y-113808166D01*
X140287500Y-114171834D01*
X140299129Y-114245257D01*
X140302502Y-114266555D01*
X140360675Y-114380725D01*
X140451274Y-114471324D01*
X140451276Y-114471325D01*
X140451277Y-114471326D01*
X140489754Y-114490931D01*
X140532542Y-114512733D01*
X140584157Y-114561482D01*
X140601223Y-114630397D01*
X140578322Y-114697598D01*
X140532542Y-114737267D01*
X140451274Y-114778675D01*
X140360675Y-114869274D01*
X140302502Y-114983444D01*
X140302501Y-114983445D01*
X140302502Y-114983445D01*
X140287500Y-115078166D01*
X140287500Y-115441834D01*
X140298930Y-115514000D01*
X140302502Y-115536555D01*
X140360675Y-115650725D01*
X140451274Y-115741324D01*
X140451276Y-115741325D01*
X140451277Y-115741326D01*
X140523430Y-115778090D01*
X140532542Y-115782733D01*
X140584157Y-115831482D01*
X140601223Y-115900397D01*
X140578322Y-115967598D01*
X140532542Y-116007267D01*
X140451274Y-116048675D01*
X140360675Y-116139274D01*
X140302502Y-116253444D01*
X140296656Y-116290358D01*
X140292223Y-116318349D01*
X140287500Y-116348167D01*
X140287500Y-116711832D01*
X140302502Y-116806555D01*
X140369734Y-116938504D01*
X140365326Y-116940749D01*
X140380859Y-116969195D01*
X140375794Y-117040010D01*
X140333247Y-117096846D01*
X140321879Y-117104430D01*
X140285501Y-117125944D01*
X140167947Y-117243498D01*
X140083318Y-117386600D01*
X140037007Y-117546000D01*
X142996992Y-117546000D01*
X142950681Y-117386600D01*
X142866052Y-117243498D01*
X142748499Y-117125945D01*
X142712121Y-117104431D01*
X142663669Y-117052538D01*
X142650964Y-116982687D01*
X142668336Y-116940577D01*
X142664266Y-116938504D01*
X142703095Y-116862298D01*
X142731498Y-116806555D01*
X142746500Y-116711834D01*
X142746500Y-116348166D01*
X142731498Y-116253445D01*
X142673326Y-116139277D01*
X142673325Y-116139276D01*
X142673324Y-116139274D01*
X142582725Y-116048675D01*
X142549017Y-116031500D01*
X142501455Y-116007266D01*
X142449842Y-115958519D01*
X142432776Y-115889604D01*
X142455677Y-115822402D01*
X142501455Y-115782734D01*
X142582723Y-115741326D01*
X142608547Y-115715502D01*
X142647645Y-115676405D01*
X142709957Y-115642379D01*
X142736740Y-115639500D01*
X142757544Y-115639500D01*
X142825665Y-115659502D01*
X142861238Y-115693921D01*
X142863502Y-115697201D01*
X142982471Y-115802599D01*
X143123207Y-115876463D01*
X143277529Y-115914500D01*
X143277531Y-115914500D01*
X143436469Y-115914500D01*
X143436471Y-115914500D01*
X143590793Y-115876463D01*
X143731529Y-115802599D01*
X143850498Y-115697201D01*
X143940787Y-115566395D01*
X143960658Y-115514000D01*
X144987007Y-115514000D01*
X145033318Y-115673399D01*
X145117947Y-115816501D01*
X145235501Y-115934055D01*
X145271877Y-115955568D01*
X145320330Y-116007461D01*
X145333035Y-116077311D01*
X145315662Y-116119421D01*
X145319734Y-116121496D01*
X145252502Y-116253444D01*
X145246656Y-116290358D01*
X145242223Y-116318349D01*
X145237500Y-116348167D01*
X145237500Y-116711832D01*
X145252502Y-116806555D01*
X145310675Y-116920725D01*
X145401274Y-117011324D01*
X145401276Y-117011325D01*
X145401277Y-117011326D01*
X145457572Y-117040010D01*
X145482542Y-117052733D01*
X145534157Y-117101482D01*
X145551223Y-117170397D01*
X145528322Y-117237598D01*
X145482542Y-117277267D01*
X145401274Y-117318675D01*
X145310675Y-117409274D01*
X145252502Y-117523444D01*
X145252501Y-117523445D01*
X145252502Y-117523445D01*
X145237500Y-117618166D01*
X145237500Y-117981834D01*
X145246369Y-118037832D01*
X145252502Y-118076555D01*
X145310675Y-118190725D01*
X145401274Y-118281324D01*
X145401276Y-118281325D01*
X145401277Y-118281326D01*
X145515445Y-118339498D01*
X145610166Y-118354500D01*
X145610167Y-118354500D01*
X147323833Y-118354500D01*
X147323834Y-118354500D01*
X147418555Y-118339498D01*
X147532723Y-118281326D01*
X147623326Y-118190723D01*
X147681498Y-118076555D01*
X147696500Y-117981834D01*
X147696500Y-117618166D01*
X147681498Y-117523445D01*
X147623326Y-117409277D01*
X147623325Y-117409276D01*
X147623324Y-117409274D01*
X147532725Y-117318675D01*
X147499017Y-117301500D01*
X147451455Y-117277266D01*
X147399842Y-117228519D01*
X147382776Y-117159604D01*
X147405677Y-117092402D01*
X147451455Y-117052734D01*
X147532723Y-117011326D01*
X147623326Y-116920723D01*
X147681498Y-116806555D01*
X147696500Y-116711834D01*
X147696500Y-116348166D01*
X147681498Y-116253445D01*
X147623326Y-116139277D01*
X147623325Y-116139276D01*
X147614266Y-116121496D01*
X147618673Y-116119250D01*
X147603140Y-116090804D01*
X147608205Y-116019989D01*
X147650752Y-115963153D01*
X147662123Y-115955567D01*
X147698497Y-115934055D01*
X147777693Y-115854859D01*
X147840005Y-115820834D01*
X147910821Y-115825898D01*
X147955884Y-115854859D01*
X148047657Y-115946632D01*
X148198477Y-116039659D01*
X148366672Y-116095393D01*
X148467307Y-116105674D01*
X148473697Y-116106000D01*
X148717000Y-116106000D01*
X148717000Y-115339500D01*
X149225000Y-115339500D01*
X149225000Y-116106000D01*
X149468303Y-116106000D01*
X149474692Y-116105674D01*
X149575327Y-116095393D01*
X149743522Y-116039659D01*
X149894342Y-115946632D01*
X150019632Y-115821342D01*
X150112659Y-115670522D01*
X150168393Y-115502327D01*
X150178674Y-115401692D01*
X150179000Y-115395302D01*
X150179000Y-115339500D01*
X149225000Y-115339500D01*
X148717000Y-115339500D01*
X147990000Y-115339500D01*
X147990000Y-115388000D01*
X147969998Y-115456121D01*
X147916342Y-115502614D01*
X147864000Y-115514000D01*
X144987007Y-115514000D01*
X143960658Y-115514000D01*
X143997149Y-115417782D01*
X144016307Y-115260000D01*
X143997149Y-115102218D01*
X143940787Y-114953605D01*
X143850498Y-114822799D01*
X143731529Y-114717401D01*
X143590793Y-114643537D01*
X143443433Y-114607216D01*
X143382081Y-114571493D01*
X143349779Y-114508270D01*
X143356787Y-114437620D01*
X143400878Y-114381974D01*
X143458000Y-114359846D01*
X143466783Y-114358752D01*
X143466787Y-114358749D01*
X143474782Y-114357753D01*
X143474842Y-114357734D01*
X143481926Y-114353900D01*
X143481927Y-114353900D01*
X143528411Y-114328742D01*
X143533043Y-114326359D01*
X143573498Y-114306582D01*
X143580568Y-114303126D01*
X143580568Y-114303125D01*
X143587807Y-114299587D01*
X143587854Y-114299552D01*
X143599855Y-114286516D01*
X143629130Y-114254713D01*
X143632713Y-114250979D01*
X143639692Y-114244000D01*
X144987007Y-114244000D01*
X145033318Y-114403399D01*
X145126048Y-114560199D01*
X145121942Y-114562627D01*
X145141376Y-114598216D01*
X145136311Y-114669031D01*
X145123827Y-114688487D01*
X145126048Y-114689801D01*
X145033318Y-114846600D01*
X144987007Y-115006000D01*
X146213000Y-115006000D01*
X146213000Y-114244000D01*
X144987007Y-114244000D01*
X143639692Y-114244000D01*
X144223276Y-113660416D01*
X144243457Y-113644029D01*
X144249133Y-113640321D01*
X144252582Y-113638068D01*
X144272202Y-113612858D01*
X144282553Y-113601141D01*
X144282553Y-113601140D01*
X144282581Y-113601113D01*
X144294811Y-113583982D01*
X144297871Y-113579879D01*
X144330375Y-113538119D01*
X144330376Y-113538114D01*
X144335327Y-113531754D01*
X144335351Y-113531709D01*
X144337651Y-113523981D01*
X144337653Y-113523979D01*
X144352750Y-113473265D01*
X144354305Y-113468409D01*
X144371500Y-113418327D01*
X144371500Y-113418324D01*
X144374113Y-113410714D01*
X144374124Y-113410633D01*
X144373791Y-113402591D01*
X144373792Y-113402590D01*
X144371608Y-113349775D01*
X144371500Y-113344569D01*
X144371500Y-112974000D01*
X144987007Y-112974000D01*
X145033318Y-113133399D01*
X145126048Y-113290199D01*
X145121942Y-113292626D01*
X145141377Y-113328217D01*
X145136312Y-113399032D01*
X145123813Y-113418479D01*
X145126048Y-113419801D01*
X145033318Y-113576600D01*
X144987007Y-113736000D01*
X146213000Y-113736000D01*
X146213000Y-112974000D01*
X144987007Y-112974000D01*
X144371500Y-112974000D01*
X144371500Y-111704000D01*
X144987007Y-111704000D01*
X145033318Y-111863399D01*
X145126048Y-112020199D01*
X145121942Y-112022626D01*
X145141377Y-112058217D01*
X145136312Y-112129032D01*
X145123813Y-112148479D01*
X145126048Y-112149801D01*
X145033318Y-112306600D01*
X144987007Y-112466000D01*
X146213000Y-112466000D01*
X146213000Y-111704000D01*
X144987007Y-111704000D01*
X144371500Y-111704000D01*
X144371500Y-110685500D01*
X144391502Y-110617379D01*
X144445158Y-110570886D01*
X144497500Y-110559500D01*
X144899673Y-110559500D01*
X144910574Y-110559500D01*
X144936431Y-110562181D01*
X144947100Y-110564419D01*
X144978796Y-110560468D01*
X144994382Y-110559500D01*
X145147756Y-110559500D01*
X145215877Y-110579502D01*
X145262370Y-110633158D01*
X145272474Y-110703432D01*
X145242980Y-110768012D01*
X145236851Y-110774595D01*
X145117947Y-110893498D01*
X145033318Y-111036600D01*
X144987007Y-111196000D01*
X146595000Y-111196000D01*
X146663121Y-111216002D01*
X146709614Y-111269658D01*
X146721000Y-111322000D01*
X146721000Y-113736000D01*
X147987180Y-113736000D01*
X148055301Y-113756002D01*
X148088049Y-113786492D01*
X148160595Y-113883404D01*
X148211106Y-113921215D01*
X148253653Y-113978051D01*
X148258719Y-114048866D01*
X148224694Y-114111179D01*
X148201745Y-114129325D01*
X148046241Y-114225241D01*
X147980094Y-114244000D01*
X146721000Y-114244000D01*
X146721000Y-115006000D01*
X147723000Y-115006000D01*
X147723000Y-114957500D01*
X147743002Y-114889379D01*
X147796658Y-114842886D01*
X147849000Y-114831500D01*
X150179000Y-114831500D01*
X150179000Y-114775697D01*
X150178674Y-114769307D01*
X150168393Y-114668672D01*
X150112659Y-114500477D01*
X150019632Y-114349657D01*
X149894342Y-114224367D01*
X149740254Y-114129325D01*
X149692776Y-114076539D01*
X149681373Y-114006464D01*
X149709665Y-113941349D01*
X149730894Y-113921215D01*
X149781403Y-113883405D01*
X149795805Y-113864166D01*
X149868342Y-113767267D01*
X149873268Y-113754061D01*
X149885239Y-113721967D01*
X149927786Y-113665131D01*
X149994306Y-113640321D01*
X150003294Y-113640000D01*
X150881116Y-113640000D01*
X150949237Y-113660002D01*
X150970211Y-113676905D01*
X152104595Y-114811289D01*
X152138621Y-114873601D01*
X152141500Y-114900384D01*
X152141500Y-116141068D01*
X152156265Y-116215300D01*
X152212515Y-116299484D01*
X152245888Y-116321783D01*
X152296699Y-116355734D01*
X152370933Y-116370500D01*
X152515500Y-116370499D01*
X152583620Y-116390501D01*
X152630113Y-116444156D01*
X152641500Y-116496499D01*
X152641500Y-118372837D01*
X152621498Y-118440958D01*
X152604596Y-118461932D01*
X151973934Y-119092595D01*
X151911621Y-119126620D01*
X151884838Y-119129500D01*
X136242500Y-119129500D01*
X136174379Y-119109498D01*
X136127886Y-119055842D01*
X136116500Y-119003500D01*
X136116500Y-109201382D01*
X136136502Y-109133261D01*
X136153400Y-109112292D01*
X137010276Y-108255416D01*
X137030457Y-108239029D01*
X137039582Y-108233068D01*
X137059202Y-108207858D01*
X137069553Y-108196141D01*
X137069553Y-108196140D01*
X137069581Y-108196113D01*
X137081811Y-108178982D01*
X137084871Y-108174879D01*
X137117375Y-108133119D01*
X137117376Y-108133114D01*
X137122327Y-108126754D01*
X137122351Y-108126709D01*
X137124651Y-108118981D01*
X137124653Y-108118979D01*
X137139750Y-108068265D01*
X137141305Y-108063409D01*
X137158500Y-108013327D01*
X137158500Y-108013324D01*
X137161113Y-108005714D01*
X137161124Y-108005633D01*
X137160791Y-107997591D01*
X137160792Y-107997590D01*
X137158608Y-107944775D01*
X137158500Y-107939569D01*
X137158500Y-107596110D01*
X137178502Y-107527989D01*
X137232158Y-107481496D01*
X137276913Y-107470499D01*
X137277254Y-107470499D01*
X137337342Y-107464040D01*
X137473267Y-107413342D01*
X137537063Y-107365585D01*
X137603581Y-107340775D01*
X137672955Y-107355866D01*
G37*
%TD.AperFunction*%
%TA.AperFunction,Conductor*%
G36*
X165997563Y-103146502D02*
G01*
X166009373Y-103155099D01*
X166077515Y-103211021D01*
X166094978Y-103228484D01*
X166150899Y-103296624D01*
X166178653Y-103361970D01*
X166179500Y-103376557D01*
X166179500Y-120255441D01*
X166159498Y-120323562D01*
X166150899Y-120335375D01*
X166094978Y-120403515D01*
X166077513Y-120420980D01*
X166009376Y-120476899D01*
X165944029Y-120504653D01*
X165929442Y-120505500D01*
X124158558Y-120505500D01*
X124090437Y-120485498D01*
X124078625Y-120476900D01*
X124078624Y-120476899D01*
X124010484Y-120420978D01*
X123993020Y-120403514D01*
X123937100Y-120335374D01*
X123909347Y-120270026D01*
X123908500Y-120255441D01*
X123908500Y-117516000D01*
X124215397Y-117516000D01*
X124235757Y-117722713D01*
X124235757Y-117722715D01*
X124235758Y-117722718D01*
X124296055Y-117921492D01*
X124296056Y-117921494D01*
X124393972Y-118104682D01*
X124525747Y-118265252D01*
X124684453Y-118395497D01*
X124686317Y-118397027D01*
X124869508Y-118494945D01*
X125068282Y-118555242D01*
X125223199Y-118570500D01*
X125226291Y-118570500D01*
X127523709Y-118570500D01*
X127526801Y-118570500D01*
X127681718Y-118555242D01*
X127880492Y-118494945D01*
X128063683Y-118397027D01*
X128224252Y-118265252D01*
X128356027Y-118104683D01*
X128453945Y-117921492D01*
X128514242Y-117722718D01*
X128534602Y-117516000D01*
X128514242Y-117309282D01*
X128453945Y-117110508D01*
X128356027Y-116927317D01*
X128350617Y-116920725D01*
X128224252Y-116766747D01*
X128063682Y-116634972D01*
X127880494Y-116537056D01*
X127880493Y-116537055D01*
X127880492Y-116537055D01*
X127681718Y-116476758D01*
X127681715Y-116476757D01*
X127681713Y-116476757D01*
X127529881Y-116461803D01*
X127529873Y-116461802D01*
X127526801Y-116461500D01*
X125223199Y-116461500D01*
X125220127Y-116461802D01*
X125220118Y-116461803D01*
X125068286Y-116476757D01*
X125068283Y-116476757D01*
X125068282Y-116476758D01*
X124869508Y-116537055D01*
X124869505Y-116537056D01*
X124686317Y-116634972D01*
X124525747Y-116766747D01*
X124393972Y-116927317D01*
X124296056Y-117110505D01*
X124235757Y-117309286D01*
X124215397Y-117516000D01*
X123908500Y-117516000D01*
X123908500Y-114066000D01*
X125569435Y-114066000D01*
X125589632Y-114245257D01*
X125649210Y-114415521D01*
X125745184Y-114568263D01*
X125872736Y-114695815D01*
X126025478Y-114791789D01*
X126138965Y-114831500D01*
X126195745Y-114851368D01*
X126330046Y-114866500D01*
X126333582Y-114866500D01*
X126416418Y-114866500D01*
X126419954Y-114866500D01*
X126554255Y-114851368D01*
X126724522Y-114791789D01*
X126877262Y-114695816D01*
X127004816Y-114568262D01*
X127100789Y-114415522D01*
X127160368Y-114245255D01*
X127180565Y-114066000D01*
X127160368Y-113886745D01*
X127100789Y-113716478D01*
X127051521Y-113638068D01*
X127004815Y-113563736D01*
X126877263Y-113436184D01*
X126724521Y-113340210D01*
X126554257Y-113280632D01*
X126423463Y-113265895D01*
X126423456Y-113265894D01*
X126419954Y-113265500D01*
X126330046Y-113265500D01*
X126326544Y-113265894D01*
X126326536Y-113265895D01*
X126195742Y-113280632D01*
X126025478Y-113340210D01*
X125872736Y-113436184D01*
X125745184Y-113563736D01*
X125649210Y-113716478D01*
X125589632Y-113886742D01*
X125569435Y-114066000D01*
X123908500Y-114066000D01*
X123908500Y-109566000D01*
X125569435Y-109566000D01*
X125589632Y-109745257D01*
X125649210Y-109915521D01*
X125745184Y-110068263D01*
X125872736Y-110195815D01*
X125956633Y-110248531D01*
X126025478Y-110291789D01*
X126195745Y-110351368D01*
X126330046Y-110366500D01*
X126333582Y-110366500D01*
X126416418Y-110366500D01*
X126419954Y-110366500D01*
X126554255Y-110351368D01*
X126724522Y-110291789D01*
X126877262Y-110195816D01*
X127004816Y-110068262D01*
X127100789Y-109915522D01*
X127160368Y-109745255D01*
X127180565Y-109566000D01*
X127160368Y-109386745D01*
X127142926Y-109336900D01*
X127100789Y-109216478D01*
X127004815Y-109063736D01*
X126877263Y-108936184D01*
X126724521Y-108840210D01*
X126554257Y-108780632D01*
X126423463Y-108765895D01*
X126423456Y-108765894D01*
X126419954Y-108765500D01*
X126330046Y-108765500D01*
X126326544Y-108765894D01*
X126326536Y-108765895D01*
X126195742Y-108780632D01*
X126025478Y-108840210D01*
X125872736Y-108936184D01*
X125745184Y-109063736D01*
X125649210Y-109216478D01*
X125589632Y-109386742D01*
X125569435Y-109566000D01*
X123908500Y-109566000D01*
X123908500Y-106116000D01*
X124215397Y-106116000D01*
X124235757Y-106322713D01*
X124235757Y-106322715D01*
X124235758Y-106322718D01*
X124296055Y-106521492D01*
X124296056Y-106521494D01*
X124393972Y-106704682D01*
X124525747Y-106865252D01*
X124642793Y-106961308D01*
X124686317Y-106997027D01*
X124869508Y-107094945D01*
X125068282Y-107155242D01*
X125223199Y-107170500D01*
X125226291Y-107170500D01*
X127523709Y-107170500D01*
X127526801Y-107170500D01*
X127620708Y-107161250D01*
X127633004Y-107160040D01*
X127702757Y-107173269D01*
X127754285Y-107222109D01*
X127758836Y-107240627D01*
X128382895Y-107864686D01*
X128337881Y-107871471D01*
X128212946Y-107931637D01*
X128111295Y-108025955D01*
X128041961Y-108146045D01*
X128024098Y-108224307D01*
X127415185Y-107615394D01*
X127370948Y-107678572D01*
X127277031Y-107879975D01*
X127219517Y-108094623D01*
X127200149Y-108316000D01*
X127219517Y-108537376D01*
X127277031Y-108752024D01*
X127370947Y-108953426D01*
X127415184Y-109016603D01*
X127415185Y-109016603D01*
X128020826Y-108410961D01*
X128021467Y-108419516D01*
X128072128Y-108548598D01*
X128158586Y-108657013D01*
X128273159Y-108735127D01*
X128381625Y-108768584D01*
X127774395Y-109375813D01*
X127774395Y-109375814D01*
X127837573Y-109420052D01*
X128038975Y-109513968D01*
X128264033Y-109574272D01*
X128324656Y-109611224D01*
X128355677Y-109675084D01*
X128347249Y-109745579D01*
X128302046Y-109800326D01*
X128267998Y-109816553D01*
X128084121Y-109872331D01*
X127907532Y-109966721D01*
X127752747Y-110093747D01*
X127625721Y-110248532D01*
X127531332Y-110425121D01*
X127473207Y-110616730D01*
X127453581Y-110816000D01*
X127473207Y-111015269D01*
X127531332Y-111206878D01*
X127531333Y-111206880D01*
X127625722Y-111383469D01*
X127643131Y-111404682D01*
X127752747Y-111538252D01*
X127839632Y-111609555D01*
X127907531Y-111665278D01*
X127981616Y-111704877D01*
X128032265Y-111754629D01*
X128047975Y-111823865D01*
X128023759Y-111890604D01*
X127981619Y-111927120D01*
X127907532Y-111966721D01*
X127752747Y-112093747D01*
X127625721Y-112248532D01*
X127531332Y-112425121D01*
X127473207Y-112616730D01*
X127453581Y-112815999D01*
X127473207Y-113015269D01*
X127529648Y-113201326D01*
X127531333Y-113206880D01*
X127625722Y-113383469D01*
X127652745Y-113416397D01*
X127752747Y-113538252D01*
X127805941Y-113581906D01*
X127907531Y-113665278D01*
X128084120Y-113759667D01*
X128116354Y-113769445D01*
X128275730Y-113817792D01*
X128474999Y-113837418D01*
X128474999Y-113837417D01*
X128475000Y-113837418D01*
X128674269Y-113817792D01*
X128805958Y-113777843D01*
X128876951Y-113777210D01*
X128931629Y-113809323D01*
X130669581Y-115547275D01*
X130685966Y-115567450D01*
X130691932Y-115576582D01*
X130717141Y-115596203D01*
X130728842Y-115606537D01*
X130728881Y-115606576D01*
X130728884Y-115606578D01*
X130728887Y-115606581D01*
X130745999Y-115618799D01*
X130750142Y-115621889D01*
X130798234Y-115659320D01*
X130798296Y-115659352D01*
X130806017Y-115661650D01*
X130806021Y-115661653D01*
X130856743Y-115676752D01*
X130861607Y-115678311D01*
X130911673Y-115695500D01*
X130911675Y-115695500D01*
X130919280Y-115698111D01*
X130919369Y-115698124D01*
X130927408Y-115697791D01*
X130927410Y-115697792D01*
X130980213Y-115695608D01*
X130985421Y-115695500D01*
X132068260Y-115695500D01*
X132136381Y-115715502D01*
X132157355Y-115732405D01*
X132222274Y-115797324D01*
X132222276Y-115797325D01*
X132222277Y-115797326D01*
X132255983Y-115814500D01*
X132303542Y-115838733D01*
X132355157Y-115887482D01*
X132372223Y-115956397D01*
X132349322Y-116023598D01*
X132303542Y-116063267D01*
X132222274Y-116104675D01*
X132131675Y-116195274D01*
X132073502Y-116309444D01*
X132058500Y-116404167D01*
X132058500Y-116767832D01*
X132073502Y-116862555D01*
X132131675Y-116976725D01*
X132222274Y-117067324D01*
X132222276Y-117067325D01*
X132222277Y-117067326D01*
X132255983Y-117084500D01*
X132303542Y-117108733D01*
X132355157Y-117157482D01*
X132372223Y-117226397D01*
X132349322Y-117293598D01*
X132303542Y-117333267D01*
X132222274Y-117374675D01*
X132131675Y-117465274D01*
X132073502Y-117579444D01*
X132073501Y-117579445D01*
X132073502Y-117579445D01*
X132058500Y-117674166D01*
X132058500Y-118037834D01*
X132069088Y-118104683D01*
X132073502Y-118132555D01*
X132131675Y-118246725D01*
X132222274Y-118337324D01*
X132222276Y-118337325D01*
X132222277Y-118337326D01*
X132336445Y-118395498D01*
X132431166Y-118410500D01*
X132431167Y-118410500D01*
X134144833Y-118410500D01*
X134144834Y-118410500D01*
X134239555Y-118395498D01*
X134353723Y-118337326D01*
X134444326Y-118246723D01*
X134502498Y-118132555D01*
X134517500Y-118037834D01*
X134517500Y-117674166D01*
X134502498Y-117579445D01*
X134444326Y-117465277D01*
X134444325Y-117465276D01*
X134444324Y-117465274D01*
X134353725Y-117374675D01*
X134350422Y-117372992D01*
X134272455Y-117333266D01*
X134220842Y-117284519D01*
X134203776Y-117215604D01*
X134226677Y-117148402D01*
X134272455Y-117108734D01*
X134353723Y-117067326D01*
X134444326Y-116976723D01*
X134502498Y-116862555D01*
X134517500Y-116767834D01*
X134517500Y-116404166D01*
X134502498Y-116309445D01*
X134444326Y-116195277D01*
X134444325Y-116195276D01*
X134444324Y-116195274D01*
X134353725Y-116104675D01*
X134326502Y-116090804D01*
X134272455Y-116063266D01*
X134220842Y-116014519D01*
X134203776Y-115945604D01*
X134226677Y-115878402D01*
X134272455Y-115838734D01*
X134353723Y-115797326D01*
X134444326Y-115706723D01*
X134502498Y-115592555D01*
X134517500Y-115497834D01*
X134517500Y-115134166D01*
X134502498Y-115039445D01*
X134444326Y-114925277D01*
X134444325Y-114925276D01*
X134444324Y-114925274D01*
X134353725Y-114834675D01*
X134347494Y-114831500D01*
X134272455Y-114793266D01*
X134220842Y-114744519D01*
X134203776Y-114675604D01*
X134226677Y-114608402D01*
X134272455Y-114568734D01*
X134353723Y-114527326D01*
X134444326Y-114436723D01*
X134502498Y-114322555D01*
X134517500Y-114227834D01*
X134517500Y-113864166D01*
X134502498Y-113769445D01*
X134444326Y-113655277D01*
X134444325Y-113655276D01*
X134444324Y-113655274D01*
X134353725Y-113564675D01*
X134350422Y-113562992D01*
X134272455Y-113523266D01*
X134220842Y-113474519D01*
X134203776Y-113405604D01*
X134226677Y-113338402D01*
X134272455Y-113298734D01*
X134353723Y-113257326D01*
X134444326Y-113166723D01*
X134496930Y-113063481D01*
X134520097Y-113031595D01*
X134978276Y-112573416D01*
X134998457Y-112557029D01*
X135007582Y-112551068D01*
X135027201Y-112525859D01*
X135037546Y-112514147D01*
X135037580Y-112514114D01*
X135049774Y-112497033D01*
X135052880Y-112492867D01*
X135085375Y-112451119D01*
X135085375Y-112451116D01*
X135090321Y-112444763D01*
X135090355Y-112444698D01*
X135092653Y-112436980D01*
X135107746Y-112386276D01*
X135109309Y-112381397D01*
X135112332Y-112372591D01*
X135153377Y-112314663D01*
X135219225Y-112288119D01*
X135288970Y-112301390D01*
X135340469Y-112350261D01*
X135357500Y-112413520D01*
X135357500Y-119003500D01*
X135337498Y-119071621D01*
X135283842Y-119118114D01*
X135231500Y-119129500D01*
X131071161Y-119129500D01*
X131003040Y-119109498D01*
X130982066Y-119092595D01*
X129954405Y-118064934D01*
X129920379Y-118002622D01*
X129917500Y-117975839D01*
X129917500Y-116321783D01*
X129920380Y-116294997D01*
X129921389Y-116290358D01*
X129917820Y-116240472D01*
X129917499Y-116231475D01*
X129917500Y-116217917D01*
X129915566Y-116204468D01*
X129914608Y-116195557D01*
X129911040Y-116145658D01*
X129909379Y-116141205D01*
X129902716Y-116115096D01*
X129902042Y-116110404D01*
X129881259Y-116064897D01*
X129877816Y-116056584D01*
X129860342Y-116009732D01*
X129857496Y-116005931D01*
X129843751Y-115982766D01*
X129841777Y-115978442D01*
X129809011Y-115940627D01*
X129803387Y-115933648D01*
X129795250Y-115922779D01*
X129785644Y-115913173D01*
X129779542Y-115906619D01*
X129746775Y-115868804D01*
X129742770Y-115866230D01*
X129721803Y-115849332D01*
X129509467Y-115636996D01*
X129475441Y-115574684D01*
X129477328Y-115527792D01*
X129475576Y-115527620D01*
X129496418Y-115316000D01*
X129476792Y-115116730D01*
X129436360Y-114983445D01*
X129418667Y-114925120D01*
X129324278Y-114748531D01*
X129258740Y-114668672D01*
X129197252Y-114593747D01*
X129083600Y-114500477D01*
X129042469Y-114466722D01*
X128865880Y-114372333D01*
X128865879Y-114372332D01*
X128865878Y-114372332D01*
X128674269Y-114314207D01*
X128474999Y-114294581D01*
X128275730Y-114314207D01*
X128084121Y-114372332D01*
X127907532Y-114466721D01*
X127752747Y-114593747D01*
X127625721Y-114748532D01*
X127531332Y-114925121D01*
X127473207Y-115116730D01*
X127453581Y-115315999D01*
X127473207Y-115515269D01*
X127531285Y-115706723D01*
X127531333Y-115706880D01*
X127625722Y-115883469D01*
X127669850Y-115937239D01*
X127752747Y-116038252D01*
X127783229Y-116063267D01*
X127907531Y-116165278D01*
X128084120Y-116259667D01*
X128179925Y-116288729D01*
X128275730Y-116317792D01*
X128475000Y-116337418D01*
X128686620Y-116316576D01*
X128686843Y-116318842D01*
X128741303Y-116318349D01*
X128795996Y-116350467D01*
X128871595Y-116426066D01*
X128905621Y-116488378D01*
X128908500Y-116515161D01*
X128908499Y-118169215D01*
X128905621Y-118195990D01*
X128904610Y-118200635D01*
X128908179Y-118250528D01*
X128908500Y-118259516D01*
X128908500Y-118273086D01*
X128910429Y-118286508D01*
X128911390Y-118295441D01*
X128914960Y-118345342D01*
X128916621Y-118349795D01*
X128923282Y-118375895D01*
X128923957Y-118380595D01*
X128944736Y-118426095D01*
X128948170Y-118434385D01*
X128958445Y-118461932D01*
X128965657Y-118481268D01*
X128968503Y-118485069D01*
X128982244Y-118508227D01*
X128984220Y-118512555D01*
X128984223Y-118512558D01*
X129016976Y-118550357D01*
X129022608Y-118557346D01*
X129030749Y-118568220D01*
X129040335Y-118577806D01*
X129046464Y-118584388D01*
X129079225Y-118622196D01*
X129083223Y-118624765D01*
X129104197Y-118641668D01*
X130405332Y-119942803D01*
X130422230Y-119963770D01*
X130424804Y-119967775D01*
X130462619Y-120000542D01*
X130469173Y-120006644D01*
X130478779Y-120016250D01*
X130489648Y-120024387D01*
X130496627Y-120030011D01*
X130534442Y-120062777D01*
X130538766Y-120064751D01*
X130561931Y-120078496D01*
X130565732Y-120081342D01*
X130612584Y-120098816D01*
X130620897Y-120102259D01*
X130644444Y-120113013D01*
X130666404Y-120123042D01*
X130671099Y-120123716D01*
X130697205Y-120130379D01*
X130701658Y-120132040D01*
X130751554Y-120135608D01*
X130760484Y-120136569D01*
X130773914Y-120138500D01*
X130773917Y-120138500D01*
X130787484Y-120138500D01*
X130796470Y-120138820D01*
X130846360Y-120142389D01*
X130851003Y-120141378D01*
X130877784Y-120138500D01*
X152078216Y-120138500D01*
X152104996Y-120141378D01*
X152109640Y-120142389D01*
X152159529Y-120138820D01*
X152168516Y-120138500D01*
X152182080Y-120138500D01*
X152182083Y-120138500D01*
X152195523Y-120136567D01*
X152204439Y-120135608D01*
X152254342Y-120132040D01*
X152258792Y-120130379D01*
X152284900Y-120123716D01*
X152289596Y-120123042D01*
X152335099Y-120102260D01*
X152343373Y-120098832D01*
X152390267Y-120081343D01*
X152394070Y-120078495D01*
X152417238Y-120064749D01*
X152421558Y-120062777D01*
X152459364Y-120030016D01*
X152466343Y-120024392D01*
X152477221Y-120016250D01*
X152486831Y-120006639D01*
X152493370Y-120000550D01*
X152531196Y-119967775D01*
X152533767Y-119963773D01*
X152550667Y-119942803D01*
X153454804Y-119038665D01*
X153475773Y-119021767D01*
X153479775Y-119019196D01*
X153512550Y-118981370D01*
X153518639Y-118974831D01*
X153528250Y-118965221D01*
X153536392Y-118954343D01*
X153542016Y-118947364D01*
X153574777Y-118909558D01*
X153576749Y-118905238D01*
X153590495Y-118882070D01*
X153593343Y-118878267D01*
X153610832Y-118831373D01*
X153614260Y-118823099D01*
X153635042Y-118777596D01*
X153635716Y-118772900D01*
X153642384Y-118746780D01*
X153644040Y-118742342D01*
X153647608Y-118692444D01*
X153648570Y-118683503D01*
X153650500Y-118670085D01*
X153650500Y-118656525D01*
X153650821Y-118647536D01*
X153651926Y-118632087D01*
X153654390Y-118597640D01*
X153653379Y-118592990D01*
X153650500Y-118566211D01*
X153650500Y-118386000D01*
X154096580Y-118386000D01*
X154116231Y-118648229D01*
X154174746Y-118904599D01*
X154270817Y-119149384D01*
X154402296Y-119377113D01*
X154402298Y-119377116D01*
X154402299Y-119377117D01*
X154566254Y-119582710D01*
X154740200Y-119744108D01*
X154759023Y-119761573D01*
X154921972Y-119872669D01*
X154976290Y-119909702D01*
X155045025Y-119942803D01*
X155213211Y-120023798D01*
X155233399Y-120030025D01*
X155464492Y-120101308D01*
X155724518Y-120140500D01*
X155724520Y-120140500D01*
X155987480Y-120140500D01*
X155987482Y-120140500D01*
X156247508Y-120101308D01*
X156498788Y-120023798D01*
X156735710Y-119909702D01*
X156952980Y-119761570D01*
X157145746Y-119582710D01*
X157309701Y-119377117D01*
X157441183Y-119149384D01*
X157537254Y-118904598D01*
X157595769Y-118648228D01*
X157615420Y-118386000D01*
X157595769Y-118123772D01*
X157537254Y-117867402D01*
X157441183Y-117622616D01*
X157350341Y-117465274D01*
X157309703Y-117394886D01*
X157309701Y-117394883D01*
X157145746Y-117189290D01*
X156952980Y-117010430D01*
X156952981Y-117010430D01*
X156952976Y-117010426D01*
X156735710Y-116862298D01*
X156498788Y-116748201D01*
X156317107Y-116692160D01*
X156247508Y-116670692D01*
X155987482Y-116631500D01*
X155724518Y-116631500D01*
X155464492Y-116670692D01*
X155464488Y-116670693D01*
X155464489Y-116670693D01*
X155213211Y-116748201D01*
X154976289Y-116862298D01*
X154759023Y-117010426D01*
X154679191Y-117084500D01*
X154566254Y-117189290D01*
X154473195Y-117305981D01*
X154402296Y-117394886D01*
X154270817Y-117622615D01*
X154174746Y-117867400D01*
X154116231Y-118123770D01*
X154096580Y-118386000D01*
X153650500Y-118386000D01*
X153650500Y-116496499D01*
X153670502Y-116428378D01*
X153724158Y-116381885D01*
X153776500Y-116370499D01*
X153921068Y-116370499D01*
X153970556Y-116360655D01*
X153995301Y-116355734D01*
X154079484Y-116299484D01*
X154135734Y-116215301D01*
X154150500Y-116141067D01*
X154150499Y-114490934D01*
X154150499Y-114490933D01*
X154150499Y-114490931D01*
X154135734Y-114416699D01*
X154079484Y-114332515D01*
X153995301Y-114276266D01*
X153946480Y-114266555D01*
X153921067Y-114261500D01*
X153921066Y-114261500D01*
X152680384Y-114261500D01*
X152612263Y-114241498D01*
X152591289Y-114224595D01*
X151395918Y-113029224D01*
X151379530Y-113009044D01*
X151373567Y-112999917D01*
X151348355Y-112980293D01*
X151336653Y-112969958D01*
X151336617Y-112969922D01*
X151319532Y-112957723D01*
X151315363Y-112954614D01*
X151290481Y-112935249D01*
X151273619Y-112922125D01*
X151273617Y-112922124D01*
X151267267Y-112917182D01*
X151267192Y-112917143D01*
X151208811Y-112899762D01*
X151203853Y-112898173D01*
X151146222Y-112878388D01*
X151146130Y-112878375D01*
X151085286Y-112880892D01*
X151080079Y-112881000D01*
X150003294Y-112881000D01*
X149935173Y-112860998D01*
X149896181Y-112815999D01*
X152086397Y-112815999D01*
X152106757Y-113022713D01*
X152106757Y-113022715D01*
X152106758Y-113022718D01*
X152165804Y-113217367D01*
X152167056Y-113221494D01*
X152264972Y-113404682D01*
X152396747Y-113565252D01*
X152532798Y-113676905D01*
X152557317Y-113697027D01*
X152740508Y-113794945D01*
X152939282Y-113855242D01*
X153146000Y-113875602D01*
X153352718Y-113855242D01*
X153551492Y-113794945D01*
X153734683Y-113697027D01*
X153895252Y-113565252D01*
X154027027Y-113404683D01*
X154124945Y-113221492D01*
X154185242Y-113022718D01*
X154205602Y-112816000D01*
X154185242Y-112609282D01*
X154124945Y-112410508D01*
X154027027Y-112227317D01*
X153986062Y-112177401D01*
X153895252Y-112066747D01*
X153734682Y-111934972D01*
X153719995Y-111927122D01*
X153669347Y-111877370D01*
X153653637Y-111808134D01*
X153677853Y-111741395D01*
X153719995Y-111704878D01*
X153721711Y-111703960D01*
X153734683Y-111697027D01*
X153895252Y-111565252D01*
X154027027Y-111404683D01*
X154124945Y-111221492D01*
X154185242Y-111022718D01*
X154205602Y-110816000D01*
X154185242Y-110609282D01*
X154124945Y-110410508D01*
X154027027Y-110227317D01*
X154018014Y-110216334D01*
X153895252Y-110066747D01*
X153734682Y-109934972D01*
X153551494Y-109837056D01*
X153551493Y-109837055D01*
X153551492Y-109837055D01*
X153352718Y-109776758D01*
X153352715Y-109776757D01*
X153352713Y-109776757D01*
X153146000Y-109756397D01*
X152939286Y-109776757D01*
X152939283Y-109776757D01*
X152939282Y-109776758D01*
X152769208Y-109828349D01*
X152740505Y-109837056D01*
X152557317Y-109934972D01*
X152396747Y-110066747D01*
X152264972Y-110227317D01*
X152167056Y-110410505D01*
X152167055Y-110410507D01*
X152167055Y-110410508D01*
X152121566Y-110560468D01*
X152106757Y-110609286D01*
X152086397Y-110816000D01*
X152106757Y-111022713D01*
X152106757Y-111022715D01*
X152106758Y-111022718D01*
X152165390Y-111216002D01*
X152167056Y-111221494D01*
X152264972Y-111404682D01*
X152396747Y-111565252D01*
X152557319Y-111697029D01*
X152572005Y-111704879D01*
X152622653Y-111754631D01*
X152638362Y-111823868D01*
X152614145Y-111890607D01*
X152572005Y-111927121D01*
X152557319Y-111934970D01*
X152396747Y-112066747D01*
X152264972Y-112227317D01*
X152167056Y-112410505D01*
X152167055Y-112410507D01*
X152167055Y-112410508D01*
X152111344Y-112594166D01*
X152106757Y-112609286D01*
X152086397Y-112815999D01*
X149896181Y-112815999D01*
X149888680Y-112807342D01*
X149885239Y-112799033D01*
X149868343Y-112753734D01*
X149781404Y-112637595D01*
X149665268Y-112550658D01*
X149529339Y-112499959D01*
X149472603Y-112493859D01*
X149472585Y-112493858D01*
X149469255Y-112493500D01*
X149465888Y-112493500D01*
X148792885Y-112493500D01*
X148724764Y-112473498D01*
X148703789Y-112456595D01*
X148498404Y-112251209D01*
X148464379Y-112188897D01*
X148461500Y-112162114D01*
X148461500Y-110999904D01*
X148481502Y-110931783D01*
X148535158Y-110885290D01*
X148605432Y-110875186D01*
X148631524Y-110881846D01*
X148661750Y-110893120D01*
X148721091Y-110899500D01*
X149728908Y-110899499D01*
X149788250Y-110893120D01*
X149922491Y-110843051D01*
X150037189Y-110757189D01*
X150123051Y-110642491D01*
X150126532Y-110633158D01*
X150131826Y-110618966D01*
X150174373Y-110562131D01*
X150240893Y-110537321D01*
X150249881Y-110537000D01*
X150648074Y-110537000D01*
X150673931Y-110539681D01*
X150684600Y-110541919D01*
X150716296Y-110537968D01*
X150731882Y-110537000D01*
X150731940Y-110537000D01*
X150731943Y-110537000D01*
X150752694Y-110533536D01*
X150757743Y-110532800D01*
X150810283Y-110526252D01*
X150810288Y-110526249D01*
X150818282Y-110525253D01*
X150818342Y-110525234D01*
X150825426Y-110521400D01*
X150825427Y-110521400D01*
X150871911Y-110496242D01*
X150876543Y-110493859D01*
X150931307Y-110467087D01*
X150931354Y-110467052D01*
X150972630Y-110422214D01*
X150976213Y-110418479D01*
X151361276Y-110033416D01*
X151381457Y-110017029D01*
X151390582Y-110011068D01*
X151410202Y-109985858D01*
X151420553Y-109974141D01*
X151420553Y-109974140D01*
X151420581Y-109974113D01*
X151432811Y-109956982D01*
X151435871Y-109952879D01*
X151468375Y-109911119D01*
X151468376Y-109911114D01*
X151473327Y-109904754D01*
X151473351Y-109904709D01*
X151475651Y-109896981D01*
X151475653Y-109896979D01*
X151490750Y-109846265D01*
X151492305Y-109841409D01*
X151509500Y-109791327D01*
X151509500Y-109791324D01*
X151512113Y-109783714D01*
X151512124Y-109783633D01*
X151511791Y-109775591D01*
X151511792Y-109775590D01*
X151509608Y-109722775D01*
X151509500Y-109717569D01*
X151509500Y-108921383D01*
X151529502Y-108853262D01*
X151546396Y-108832297D01*
X151646291Y-108732402D01*
X151708601Y-108698379D01*
X151735384Y-108695500D01*
X152077640Y-108695500D01*
X152145761Y-108715502D01*
X152188762Y-108762104D01*
X152264972Y-108904682D01*
X152396747Y-109065252D01*
X152557317Y-109197026D01*
X152557317Y-109197027D01*
X152740508Y-109294945D01*
X152939282Y-109355242D01*
X153104656Y-109371530D01*
X153145999Y-109375602D01*
X153145999Y-109375601D01*
X153146000Y-109375602D01*
X153352718Y-109355242D01*
X153551492Y-109294945D01*
X153734683Y-109197027D01*
X153895252Y-109065252D01*
X154027027Y-108904683D01*
X154124945Y-108721492D01*
X154185242Y-108522718D01*
X154205602Y-108316000D01*
X154185242Y-108109282D01*
X154124945Y-107910508D01*
X154027027Y-107727317D01*
X153987023Y-107678572D01*
X153895252Y-107566747D01*
X153734682Y-107434972D01*
X153717102Y-107425575D01*
X153666455Y-107375822D01*
X153650500Y-107314454D01*
X153650500Y-106477782D01*
X153653380Y-106450998D01*
X153654389Y-106446360D01*
X153650821Y-106396471D01*
X153650500Y-106387483D01*
X153650500Y-106373913D01*
X153648569Y-106360484D01*
X153647608Y-106351554D01*
X153644040Y-106301658D01*
X153642379Y-106297205D01*
X153635716Y-106271096D01*
X153635042Y-106266404D01*
X153614259Y-106220897D01*
X153610816Y-106212584D01*
X153593342Y-106165732D01*
X153590496Y-106161931D01*
X153576751Y-106138766D01*
X153574777Y-106134442D01*
X153542011Y-106096627D01*
X153536387Y-106089648D01*
X153528250Y-106078779D01*
X153518644Y-106069173D01*
X153512542Y-106062619D01*
X153479775Y-106024804D01*
X153475770Y-106022230D01*
X153454803Y-106005332D01*
X152931668Y-105482197D01*
X152914765Y-105461223D01*
X152912196Y-105457225D01*
X152874388Y-105424464D01*
X152867806Y-105418335D01*
X152858220Y-105408749D01*
X152847346Y-105400608D01*
X152840357Y-105394976D01*
X152802558Y-105362223D01*
X152802555Y-105362220D01*
X152798227Y-105360244D01*
X152775069Y-105346503D01*
X152771268Y-105343657D01*
X152755482Y-105337769D01*
X152724385Y-105326170D01*
X152716095Y-105322736D01*
X152670595Y-105301957D01*
X152665895Y-105301282D01*
X152639795Y-105294621D01*
X152635342Y-105292960D01*
X152585441Y-105289390D01*
X152576508Y-105288429D01*
X152563087Y-105286500D01*
X152563083Y-105286500D01*
X152549516Y-105286500D01*
X152540529Y-105286179D01*
X152490640Y-105282611D01*
X152490639Y-105282611D01*
X152485997Y-105283621D01*
X152459216Y-105286500D01*
X150628173Y-105286500D01*
X150560052Y-105266498D01*
X150542290Y-105246000D01*
X154096580Y-105246000D01*
X154102588Y-105326178D01*
X154116231Y-105508229D01*
X154174746Y-105764599D01*
X154270817Y-106009384D01*
X154402296Y-106237113D01*
X154402298Y-106237116D01*
X154402299Y-106237117D01*
X154566254Y-106442710D01*
X154716445Y-106582066D01*
X154759023Y-106621573D01*
X154880927Y-106704685D01*
X154976290Y-106769702D01*
X155099115Y-106828851D01*
X155213211Y-106883798D01*
X155269252Y-106901084D01*
X155464492Y-106961308D01*
X155724518Y-107000500D01*
X155724520Y-107000500D01*
X155987480Y-107000500D01*
X155987482Y-107000500D01*
X156247508Y-106961308D01*
X156498788Y-106883798D01*
X156735710Y-106769702D01*
X156919527Y-106644378D01*
X156952976Y-106621573D01*
X156952977Y-106621571D01*
X156952980Y-106621570D01*
X157145746Y-106442710D01*
X157309701Y-106237117D01*
X157441183Y-106009384D01*
X157537254Y-105764598D01*
X157595769Y-105508228D01*
X157615420Y-105246000D01*
X157595769Y-104983772D01*
X157537254Y-104727402D01*
X157441183Y-104482616D01*
X157309701Y-104254883D01*
X157145746Y-104049290D01*
X156952980Y-103870430D01*
X156952981Y-103870430D01*
X156952976Y-103870426D01*
X156735710Y-103722298D01*
X156498788Y-103608201D01*
X156317107Y-103552160D01*
X156247508Y-103530692D01*
X155987482Y-103491500D01*
X155724518Y-103491500D01*
X155464492Y-103530692D01*
X155464488Y-103530693D01*
X155464489Y-103530693D01*
X155213211Y-103608201D01*
X154976289Y-103722298D01*
X154759023Y-103870426D01*
X154653227Y-103968590D01*
X154566254Y-104049290D01*
X154491796Y-104142657D01*
X154402296Y-104254886D01*
X154270817Y-104482615D01*
X154174746Y-104727400D01*
X154116231Y-104983770D01*
X154099065Y-105212842D01*
X154096580Y-105246000D01*
X150542290Y-105246000D01*
X150513559Y-105212842D01*
X150503455Y-105142568D01*
X150507176Y-105125346D01*
X150515993Y-105095000D01*
X148031007Y-105095000D01*
X148025218Y-105102708D01*
X148025094Y-105146344D01*
X147986540Y-105205960D01*
X147921875Y-105235268D01*
X147904300Y-105236500D01*
X146779166Y-105236500D01*
X146755485Y-105240250D01*
X146684442Y-105251502D01*
X146673702Y-105256975D01*
X146603925Y-105270079D01*
X146538141Y-105243378D01*
X146497235Y-105185351D01*
X146490500Y-105144708D01*
X146490500Y-105132500D01*
X145154500Y-105132500D01*
X145086379Y-105112498D01*
X145039886Y-105058842D01*
X145028500Y-105006500D01*
X145028500Y-103858000D01*
X145536500Y-103858000D01*
X145536500Y-104624500D01*
X146490500Y-104624500D01*
X146490500Y-104587000D01*
X148031007Y-104587000D01*
X149019500Y-104587000D01*
X149019500Y-104033000D01*
X149527500Y-104033000D01*
X149527500Y-104587000D01*
X150515992Y-104587000D01*
X150469681Y-104427600D01*
X150385052Y-104284498D01*
X150267501Y-104166947D01*
X150124399Y-104082318D01*
X149964752Y-104035935D01*
X149929915Y-104033193D01*
X149924986Y-104033000D01*
X149527500Y-104033000D01*
X149019500Y-104033000D01*
X148622016Y-104033000D01*
X148617082Y-104033194D01*
X148582247Y-104035935D01*
X148422601Y-104082317D01*
X148279498Y-104166947D01*
X148161947Y-104284498D01*
X148077318Y-104427600D01*
X148031007Y-104587000D01*
X146490500Y-104587000D01*
X146490500Y-104568697D01*
X146490174Y-104562307D01*
X146479893Y-104461672D01*
X146424159Y-104293477D01*
X146331132Y-104142657D01*
X146205842Y-104017367D01*
X146055022Y-103924340D01*
X145886827Y-103868606D01*
X145786192Y-103858325D01*
X145779803Y-103858000D01*
X145536500Y-103858000D01*
X145028500Y-103858000D01*
X144785197Y-103858000D01*
X144778807Y-103858325D01*
X144678172Y-103868606D01*
X144509977Y-103924340D01*
X144359157Y-104017367D01*
X144233865Y-104142659D01*
X144203952Y-104191156D01*
X144151166Y-104238634D01*
X144081091Y-104250036D01*
X144021204Y-104225877D01*
X143944768Y-104168658D01*
X143808839Y-104117959D01*
X143752103Y-104111859D01*
X143752085Y-104111858D01*
X143748755Y-104111500D01*
X143745387Y-104111500D01*
X142755616Y-104111500D01*
X142755597Y-104111500D01*
X142752246Y-104111501D01*
X142748904Y-104111860D01*
X142748889Y-104111861D01*
X142692161Y-104117959D01*
X142556231Y-104168658D01*
X142440095Y-104255595D01*
X142342302Y-104386235D01*
X142340915Y-104385197D01*
X142312756Y-104422812D01*
X142246235Y-104447620D01*
X142176861Y-104432527D01*
X142126661Y-104382323D01*
X142122579Y-104373386D01*
X142034404Y-104255595D01*
X141918268Y-104168658D01*
X141782339Y-104117959D01*
X141725603Y-104111859D01*
X141725585Y-104111858D01*
X141722255Y-104111500D01*
X141718887Y-104111500D01*
X140729116Y-104111500D01*
X140729097Y-104111500D01*
X140725746Y-104111501D01*
X140722404Y-104111860D01*
X140722389Y-104111861D01*
X140665661Y-104117959D01*
X140529731Y-104168658D01*
X140453295Y-104225877D01*
X140386774Y-104250687D01*
X140317400Y-104235595D01*
X140270546Y-104191155D01*
X140240632Y-104142657D01*
X140115342Y-104017367D01*
X139964522Y-103924340D01*
X139796327Y-103868606D01*
X139695692Y-103858325D01*
X139689303Y-103858000D01*
X139446000Y-103858000D01*
X139446000Y-105006500D01*
X139425998Y-105074621D01*
X139372342Y-105121114D01*
X139320000Y-105132500D01*
X133539000Y-105132500D01*
X133539000Y-105188302D01*
X133539325Y-105194692D01*
X133549606Y-105295327D01*
X133605340Y-105463522D01*
X133698367Y-105614342D01*
X133823657Y-105739632D01*
X133977745Y-105834674D01*
X134025223Y-105887460D01*
X134036626Y-105957534D01*
X134008334Y-106022650D01*
X133987107Y-106042783D01*
X133936596Y-106080594D01*
X133849658Y-106196731D01*
X133798959Y-106332660D01*
X133792859Y-106389396D01*
X133792857Y-106389415D01*
X133792500Y-106392745D01*
X133792500Y-106396111D01*
X133792500Y-106396112D01*
X133792500Y-107010883D01*
X133792500Y-107010901D01*
X133792501Y-107014254D01*
X133792860Y-107017596D01*
X133792861Y-107017610D01*
X133798959Y-107074338D01*
X133798959Y-107074340D01*
X133798960Y-107074342D01*
X133816176Y-107120500D01*
X133849658Y-107210268D01*
X133936595Y-107326404D01*
X134052731Y-107413341D01*
X134052732Y-107413341D01*
X134052733Y-107413342D01*
X134188658Y-107464040D01*
X134248745Y-107470500D01*
X134248824Y-107470499D01*
X134315187Y-107493904D01*
X134358746Y-107549967D01*
X134367500Y-107596111D01*
X134367500Y-108036914D01*
X134347498Y-108105035D01*
X134293842Y-108151528D01*
X134229717Y-108160747D01*
X134229623Y-108161948D01*
X134224289Y-108161528D01*
X134223568Y-108161632D01*
X134222397Y-108161379D01*
X134181915Y-108158193D01*
X134176986Y-108158000D01*
X133542000Y-108158000D01*
X133542000Y-109094000D01*
X133521998Y-109162121D01*
X133468342Y-109208614D01*
X133416000Y-109220000D01*
X131808007Y-109220000D01*
X131854318Y-109379401D01*
X131913405Y-109479313D01*
X131930864Y-109548129D01*
X131908347Y-109615460D01*
X131853002Y-109659929D01*
X131782401Y-109667417D01*
X131746396Y-109655018D01*
X131678795Y-109619538D01*
X131678794Y-109619537D01*
X131678793Y-109619537D01*
X131524471Y-109581500D01*
X131365529Y-109581500D01*
X131211207Y-109619537D01*
X131211206Y-109619537D01*
X131211204Y-109619538D01*
X131070472Y-109693400D01*
X130951501Y-109798799D01*
X130861212Y-109929605D01*
X130804850Y-110078219D01*
X130785693Y-110236000D01*
X130804850Y-110393780D01*
X130861212Y-110542394D01*
X130937148Y-110652405D01*
X130951502Y-110673201D01*
X131070471Y-110778599D01*
X131211207Y-110852463D01*
X131365529Y-110890500D01*
X131365531Y-110890500D01*
X131524469Y-110890500D01*
X131524471Y-110890500D01*
X131678793Y-110852463D01*
X131819529Y-110778599D01*
X131938498Y-110673201D01*
X131940761Y-110669921D01*
X131995919Y-110625224D01*
X132044456Y-110615500D01*
X132068260Y-110615500D01*
X132136381Y-110635502D01*
X132157355Y-110652405D01*
X132222274Y-110717324D01*
X132222276Y-110717325D01*
X132222277Y-110717326D01*
X132255983Y-110734500D01*
X132303542Y-110758733D01*
X132355157Y-110807482D01*
X132372223Y-110876397D01*
X132349322Y-110943598D01*
X132303542Y-110983267D01*
X132222274Y-111024675D01*
X132131675Y-111115274D01*
X132073502Y-111229444D01*
X132073501Y-111229445D01*
X132073502Y-111229445D01*
X132058500Y-111324166D01*
X132058500Y-111687834D01*
X132061200Y-111704879D01*
X132073502Y-111782555D01*
X132131675Y-111896725D01*
X132222274Y-111987324D01*
X132222276Y-111987325D01*
X132222277Y-111987326D01*
X132255983Y-112004500D01*
X132303542Y-112028733D01*
X132355157Y-112077482D01*
X132372223Y-112146397D01*
X132349322Y-112213598D01*
X132303542Y-112253267D01*
X132222274Y-112294675D01*
X132131675Y-112385274D01*
X132073502Y-112499444D01*
X132071179Y-112514114D01*
X132058500Y-112594166D01*
X132058500Y-112957834D01*
X132061297Y-112975494D01*
X132073502Y-113052555D01*
X132131675Y-113166725D01*
X132222274Y-113257324D01*
X132222276Y-113257325D01*
X132222277Y-113257326D01*
X132271491Y-113282402D01*
X132303542Y-113298733D01*
X132355157Y-113347482D01*
X132372223Y-113416397D01*
X132349322Y-113483598D01*
X132303542Y-113523267D01*
X132222274Y-113564675D01*
X132157355Y-113629595D01*
X132095043Y-113663621D01*
X132068260Y-113666500D01*
X131914384Y-113666500D01*
X131846263Y-113646498D01*
X131825289Y-113629595D01*
X129468323Y-111272629D01*
X129434297Y-111210317D01*
X129436843Y-111146959D01*
X129476792Y-111015269D01*
X129496418Y-110816000D01*
X129494216Y-110793637D01*
X129476792Y-110616730D01*
X129432471Y-110470626D01*
X129418667Y-110425120D01*
X129324278Y-110248531D01*
X129216066Y-110116673D01*
X129197252Y-110093747D01*
X129058268Y-109979688D01*
X129042469Y-109966722D01*
X128865880Y-109872333D01*
X128865879Y-109872332D01*
X128865878Y-109872332D01*
X128682001Y-109816553D01*
X128622620Y-109777638D01*
X128593704Y-109712797D01*
X128604435Y-109642616D01*
X128651405Y-109589377D01*
X128685966Y-109574272D01*
X128911025Y-109513968D01*
X129112427Y-109420052D01*
X129175603Y-109375814D01*
X129175603Y-109375812D01*
X128567104Y-108767313D01*
X128612119Y-108760529D01*
X128737054Y-108700363D01*
X128838705Y-108606045D01*
X128908039Y-108485955D01*
X128925901Y-108407692D01*
X129534812Y-109016603D01*
X129534814Y-109016603D01*
X129579052Y-108953427D01*
X129672968Y-108752024D01*
X129683692Y-108712000D01*
X131808007Y-108712000D01*
X133034000Y-108712000D01*
X133034000Y-108158000D01*
X132399016Y-108158000D01*
X132394082Y-108158194D01*
X132359247Y-108160935D01*
X132199601Y-108207317D01*
X132056498Y-108291947D01*
X131938947Y-108409498D01*
X131854318Y-108552600D01*
X131808007Y-108712000D01*
X129683692Y-108712000D01*
X129730482Y-108537376D01*
X129749850Y-108316000D01*
X129730482Y-108094623D01*
X129672968Y-107879975D01*
X129579051Y-107678571D01*
X129534815Y-107615395D01*
X129534813Y-107615395D01*
X128929173Y-108221034D01*
X128928533Y-108212484D01*
X128877872Y-108083402D01*
X128791414Y-107974987D01*
X128676841Y-107896873D01*
X128568374Y-107863415D01*
X129175603Y-107256185D01*
X129175603Y-107256184D01*
X129112426Y-107211947D01*
X128911024Y-107118031D01*
X128696376Y-107060517D01*
X128474999Y-107041149D01*
X128347753Y-107052282D01*
X128278148Y-107038293D01*
X128227156Y-106988893D01*
X128210966Y-106919767D01*
X128234719Y-106852862D01*
X128239373Y-106846828D01*
X128356025Y-106704685D01*
X128356027Y-106704683D01*
X128453945Y-106521492D01*
X128514242Y-106322718D01*
X128534602Y-106116000D01*
X128514242Y-105909282D01*
X128453945Y-105710508D01*
X128356027Y-105527317D01*
X128340361Y-105508228D01*
X128224252Y-105366747D01*
X128063682Y-105234972D01*
X127880494Y-105137056D01*
X127880493Y-105137055D01*
X127880492Y-105137055D01*
X127681718Y-105076758D01*
X127681715Y-105076757D01*
X127681713Y-105076757D01*
X127529881Y-105061803D01*
X127529873Y-105061802D01*
X127526801Y-105061500D01*
X125223199Y-105061500D01*
X125220127Y-105061802D01*
X125220118Y-105061803D01*
X125068286Y-105076757D01*
X125068283Y-105076757D01*
X125068282Y-105076758D01*
X124922059Y-105121114D01*
X124869505Y-105137056D01*
X124686317Y-105234972D01*
X124525747Y-105366747D01*
X124393972Y-105527317D01*
X124296056Y-105710505D01*
X124296055Y-105710507D01*
X124296055Y-105710508D01*
X124249846Y-105862842D01*
X124235757Y-105909286D01*
X124215397Y-106116000D01*
X123908500Y-106116000D01*
X123908500Y-104624500D01*
X133539000Y-104624500D01*
X134493000Y-104624500D01*
X134493000Y-103858000D01*
X135001000Y-103858000D01*
X135001000Y-104624500D01*
X136525000Y-104624500D01*
X136525000Y-103858000D01*
X137033000Y-103858000D01*
X137033000Y-104624500D01*
X138938000Y-104624500D01*
X138938000Y-103858000D01*
X138694697Y-103858000D01*
X138688307Y-103858325D01*
X138587672Y-103868606D01*
X138419477Y-103924340D01*
X138268657Y-104017367D01*
X138143367Y-104142657D01*
X138092741Y-104224736D01*
X138039955Y-104272214D01*
X137969880Y-104283617D01*
X137904765Y-104255325D01*
X137878259Y-104224736D01*
X137827632Y-104142657D01*
X137702342Y-104017367D01*
X137551522Y-103924340D01*
X137383327Y-103868606D01*
X137282692Y-103858325D01*
X137276303Y-103858000D01*
X137033000Y-103858000D01*
X136525000Y-103858000D01*
X136281697Y-103858000D01*
X136275307Y-103858325D01*
X136174672Y-103868606D01*
X136006477Y-103924340D01*
X135855657Y-104017367D01*
X135852095Y-104020930D01*
X135789783Y-104054956D01*
X135718968Y-104049891D01*
X135673905Y-104020930D01*
X135670342Y-104017367D01*
X135519522Y-103924340D01*
X135351327Y-103868606D01*
X135250692Y-103858325D01*
X135244303Y-103858000D01*
X135001000Y-103858000D01*
X134493000Y-103858000D01*
X134249697Y-103858000D01*
X134243307Y-103858325D01*
X134142672Y-103868606D01*
X133974477Y-103924340D01*
X133823657Y-104017367D01*
X133698367Y-104142657D01*
X133605340Y-104293477D01*
X133549606Y-104461672D01*
X133539325Y-104562307D01*
X133539000Y-104568697D01*
X133539000Y-104624500D01*
X123908500Y-104624500D01*
X123908500Y-103376557D01*
X123928502Y-103308436D01*
X123937092Y-103296633D01*
X123993025Y-103228479D01*
X124010479Y-103211025D01*
X124078625Y-103155099D01*
X124143973Y-103127347D01*
X124158558Y-103126500D01*
X165929442Y-103126500D01*
X165997563Y-103146502D01*
G37*
%TD.AperFunction*%
%TD*%
M02*
